<?xml version="1.0" standalone="no"?>
<!DOCTYPE svg PUBLIC "-//W3C//DTD SVG 20010904//EN"
 "http://www.w3.org/TR/2001/REC-SVG-20010904/DTD/svg10.dtd">
<svg version="1.0" xmlns="http://www.w3.org/2000/svg"
 width="400.000000pt" height="400.000000pt" viewBox="0 0 400.000000 400.000000"
 preserveAspectRatio="xMidYMid meet">
<g transform="translate(0.000000,400.000000) scale(0.100000,-0.100000)"
fill="#000000" stroke="none">
<path d="M2475 2426 c-13 -10 -20 -30 -23 -75 -4 -59 -5 -61 -32 -61 -31 0
-60 -27 -60 -58 0 -25 35 -52 67 -52 23 0 23 -1 23 -128 0 -70 4 -143 10 -161
26 -93 197 -181 265 -137 50 33 24 88 -48 101 -85 16 -107 62 -107 223 l0 102
70 0 c75 0 110 19 110 58 0 37 -32 52 -108 52 l-72 0 0 55 c0 80 -44 118 -95
81z"/>
<path d="M2009 2321 c-20 -4 -56 -18 -80 -30 -24 -13 -45 -19 -46 -14 -16 43
-74 51 -105 13 -18 -22 -19 -43 -16 -362 3 -323 4 -340 22 -354 27 -19 60 -18
79 4 14 15 17 40 17 125 0 59 2 107 4 107 2 0 28 -11 58 -25 151 -70 329 8
375 164 18 62 13 157 -11 214 -44 107 -181 180 -297 158z m139 -138 c135 -101
74 -313 -90 -313 -106 0 -170 59 -176 164 -3 51 0 66 20 95 45 67 106 94 182
80 21 -4 50 -15 64 -26z"/>
<path d="M2990 2305 c-103 -33 -180 -133 -188 -244 -10 -149 70 -259 216 -296
56 -15 67 -15 123 0 256 65 299 394 69 519 -63 35 -152 43 -220 21z m167 -116
c107 -52 126 -205 34 -282 -87 -73 -214 -47 -267 55 -8 15 -14 51 -14 80 0 68
34 122 93 149 55 24 101 24 154 -2z"/>
<path d="M1322 2279 c-102 -50 -152 -135 -152 -253 1 -102 55 -192 145 -239
62 -32 177 -35 242 -7 91 39 134 112 87 147 -27 20 -48 16 -89 -17 -46 -37
-72 -44 -132 -37 -84 9 -133 71 -133 168 0 70 27 115 90 147 44 23 101 25 121
5 5 -5 -20 -42 -55 -83 -76 -91 -85 -111 -57 -139 41 -41 62 -27 195 134 38
45 66 89 66 102 0 54 -93 102 -196 103 -59 0 -81 -5 -132 -31z"/>
<path d="M670 2280 c-24 -24 -25 -38 -4 -68 14 -21 22 -22 140 -22 68 0 124
-3 124 -6 0 -3 -55 -72 -123 -153 -165 -196 -171 -204 -163 -235 10 -40 59
-48 263 -40 98 4 184 11 191 17 16 13 16 62 -1 75 -7 6 -73 15 -145 19 l-132
8 145 173 c149 178 162 203 127 235 -16 15 -46 17 -210 17 -179 0 -193 -1
-212 -20z"/>
</g>
</svg>
