<?xml version="1.0" standalone="no"?>
<!DOCTYPE svg PUBLIC "-//W3C//DTD SVG 20010904//EN"
 "http://www.w3.org/TR/2001/REC-SVG-20010904/DTD/svg10.dtd">
<svg version="1.0" xmlns="http://www.w3.org/2000/svg"
 width="600.000000pt" height="450.000000pt" viewBox="0 0 600.000000 450.000000"
 preserveAspectRatio="xMidYMid meet">
<g transform="translate(0.000000,450.000000) scale(0.100000,-0.100000)"
fill="#000000" stroke="none">
<path d="M4613 2843 c4 -3 10 -3 14 0 3 4 0 7 -7 7 -7 0 -10 -3 -7 -7z"/>
<path d="M5183 2835 c-3 -9 -3 -19 1 -22 3 -4 6 1 6 10 0 10 7 17 16 17 11 0
14 -6 9 -22 -6 -18 -5 -20 5 -11 16 15 6 43 -15 43 -9 0 -18 -7 -22 -15z"/>
<path d="M4636 2819 c-11 -11 -15 -19 -9 -19 12 0 38 28 32 34 -2 2 -13 -5
-23 -15z"/>
<path d="M1305 2525 c-27 -26 -34 -82 -13 -103 20 -20 91 -15 116 8 34 32 26
126 -8 105 -9 -5 -11 -4 -6 3 5 8 -4 12 -29 12 -25 0 -43 -8 -60 -25z"/>
<path d="M496 2512 c-3 -15 -15 -85 -26 -157 -11 -71 -24 -155 -30 -185 -5
-30 -14 -82 -19 -115 -6 -33 -13 -91 -17 -128 l-7 -68 69 3 68 3 21 130 21
130 117 3 c116 3 118 3 127 28 15 38 12 71 -6 78 -9 3 -60 6 -115 6 l-100 0 7
68 c13 127 0 117 156 120 92 2 139 7 146 15 9 11 16 53 13 85 -1 10 -47 12
-210 12 l-210 -1 -5 -27z"/>
<path d="M1017 2533 c-3 -5 -15 -69 -26 -143 -12 -74 -26 -160 -31 -190 -45
-263 -45 -291 -4 -327 20 -18 37 -23 83 -23 61 0 74 7 84 48 8 33 -1 52 -31
63 -24 9 -25 11 -18 80 6 62 37 269 65 424 6 33 6 54 -1 63 -11 13 -114 17
-121 5z"/>
<path d="M2096 2523 c-3 -10 -19 -103 -36 -208 -17 -104 -40 -245 -51 -313
-11 -68 -17 -127 -14 -132 4 -6 33 -10 65 -10 67 0 63 -5 80 105 12 78 18 88
50 83 17 -2 28 -20 52 -83 17 -44 35 -86 41 -92 12 -16 123 -17 133 -2 3 6
-13 60 -36 120 -38 96 -41 111 -28 122 53 43 128 168 128 212 0 24 -2 25 -59
25 l-60 0 -32 -60 c-43 -81 -87 -127 -127 -135 -33 -7 -33 -7 -27 27 22 122
53 343 49 350 -3 4 -32 8 -64 8 -47 0 -60 -3 -64 -17z"/>
<path d="M3571 2458 c-5 -13 -15 -41 -23 -63 -11 -32 -20 -41 -43 -45 -27 -5
-30 -9 -33 -48 -3 -37 0 -43 23 -52 20 -7 24 -15 20 -32 -13 -60 -35 -223 -35
-264 0 -57 40 -103 92 -106 103 -4 141 15 136 70 -3 32 -7 37 -37 43 -18 4
-38 13 -42 21 -9 13 -5 72 16 193 l11 70 49 5 c48 5 50 6 58 43 12 48 1 61
-49 59 l-37 -1 5 52 c7 72 4 77 -53 77 -42 0 -51 -3 -58 -22z"/>
<path d="M5284 2385 c-171 -37 -269 -151 -308 -355 l-12 -65 -82 3 c-82 4
-306 -15 -342 -28 -3 -1 35 -8 84 -15 123 -18 139 -51 26 -56 l-45 -1 59 -9
c56 -8 86 -22 75 -34 -3 -3 -82 -8 -175 -12 -221 -9 -156 -20 139 -23 120 -2
219 -6 222 -9 2 -4 -5 -52 -16 -106 -10 -55 -19 -101 -19 -102 0 -2 57 -3 128
-3 l127 0 18 101 c9 55 20 105 23 111 3 5 29 8 58 7 28 -1 60 1 72 5 39 12 69
116 45 155 -5 8 -35 15 -76 19 l-67 5 6 41 c24 152 81 206 214 206 52 0 66 18
57 72 -18 107 -61 126 -211 93z"/>
<path d="M1285 2350 c-21 -8 -22 -9 -56 -235 -6 -38 -16 -101 -23 -140 -19
-113 -21 -110 51 -113 73 -3 62 -27 98 203 14 88 30 185 35 214 6 30 7 58 3
62 -13 11 -86 17 -108 9z"/>
<path d="M1535 2350 c-37 -7 -36 -1 -80 -285 -20 -126 -41 -252 -46 -278 -5
-26 -9 -66 -9 -88 l0 -40 63 3 62 3 15 92 14 91 87 0 c72 0 97 4 141 25 104
47 163 153 162 292 0 66 -4 88 -24 124 -31 53 -63 71 -133 71 -41 0 -63 -6
-98 -28 -24 -16 -50 -36 -58 -45 -21 -27 -31 -20 -31 22 0 43 -13 51 -65 41z
m250 -120 c40 -44 28 -171 -21 -229 -30 -36 -65 -47 -134 -43 -48 4 -50 5 -50
32 0 94 47 191 115 238 38 27 67 27 90 2z"/>
<path d="M2686 2344 c-46 -17 -68 -33 -60 -45 3 -5 -1 -6 -9 -3 -18 7 -58 -44
-89 -112 -32 -72 -32 -191 1 -258 19 -37 33 -52 65 -66 66 -29 159 -6 215 54
29 31 41 26 41 -20 l0 -34 50 0 c43 0 50 3 54 23 3 12 14 85 26 162 12 77 26
164 31 194 16 95 15 96 -42 109 -69 16 -235 14 -283 -4z m180 -160 c-9 -92
-50 -162 -118 -206 -56 -36 -97 -10 -105 67 -7 61 14 130 52 171 31 33 35 34
105 34 l73 0 -7 -66z"/>
<path d="M3145 2350 c-18 -7 -24 -33 -54 -225 -18 -120 -34 -223 -37 -229 -9
-25 14 -39 67 -37 29 0 56 4 61 9 10 10 32 153 33 209 0 23 1 40 3 38 2 -2 19
14 39 36 23 25 55 46 92 60 57 20 57 21 68 72 12 56 4 77 -26 77 -21 0 -99
-49 -125 -78 -28 -32 -36 -27 -36 18 0 34 -4 42 -26 50 -29 12 -32 12 -59 0z"/>
<path d="M5063 2353 c4 -3 10 -3 14 0 3 4 0 7 -7 7 -7 0 -10 -3 -7 -7z"/>
<path d="M5020 2340 c-9 -6 -10 -10 -3 -10 6 0 15 5 18 10 8 12 4 12 -15 0z"/>
<path d="M4868 2323 c7 -3 16 -2 19 1 4 3 -2 6 -13 5 -11 0 -14 -3 -6 -6z"/>
<path d="M4978 2323 c7 -3 16 -2 19 1 4 3 -2 6 -13 5 -11 0 -14 -3 -6 -6z"/>
</g>
</svg>
