<svg width="1230" height="1230" viewBox="0 0 1230 1230" fill="none" xmlns="http://www.w3.org/2000/svg">
<path d="M446.654 801.838C481.032 800.02 502.767 788.794 511.273 768.418C514.906 759.769 515.28 750.529 514.112 741.558C522.02 745.725 532.149 749.613 542.605 749.613C544.644 749.613 546.664 749.48 548.703 749.172C559.296 747.567 568.27 741.463 574.626 731.611C577.539 727.056 576.228 720.993 571.69 718.064C567.152 715.2 561.072 716.497 558.163 721.014C554.793 726.255 550.863 729.01 545.804 729.814C533.145 731.821 516.713 720.861 511.403 716.497C509.682 715.043 507.623 714.491 505.519 714.435C501.837 707.086 497.708 700.905 494.338 697.101C455.398 653.536 453.755 617.711 453.713 617.173C453.591 611.796 449.42 608.226 443.718 607.632C438.337 607.744 434.037 612.191 434.124 617.613C434.166 619.351 435.456 660.636 479.724 710.148C487.951 719.427 500.393 743.781 493.216 760.94C486.559 776.875 463.677 781.392 445.658 782.347C440.271 782.655 436.117 787.241 436.393 792.601C436.673 797.866 440.956 801.918 446.148 801.918L446.654 801.838Z" fill="black"/>
<path d="M536.869 538.8C534.831 543.828 537.205 549.544 542.176 551.6L545.92 552.337C549.742 552.337 553.409 550.072 554.975 546.292C583.151 478.237 558.695 383.031 557.674 379.014C556.304 373.766 551.014 370.511 545.742 372.039C540.491 373.388 537.358 378.751 538.771 383.985C538.96 384.922 562.548 476.779 536.869 538.8Z" fill="black"/>
<path d="M527.033 796.006C521.726 795.206 516.692 798.8 515.853 804.152C515.01 809.509 518.678 814.522 524.006 815.365C524.415 815.403 560.907 821.546 570.49 858.066C571.64 862.464 575.616 865.373 579.951 865.373L582.436 865.027C587.688 863.649 590.778 858.276 589.394 853.091C576.622 804.366 529.051 796.332 527.033 796.006Z" fill="black"/>
<path d="M581.829 580.803C578.423 593.287 551.017 593.623 538.225 591.833C533.016 591.27 527.915 594.808 527.149 600.161C526.433 605.513 530.135 610.467 535.501 611.23C537.264 611.478 543.263 612.247 551.017 612.247C568.459 612.247 594.666 608.37 600.76 585.956C602.144 580.722 599.11 575.359 593.883 573.926C588.663 572.58 583.279 575.618 581.829 580.803Z" fill="black"/>
<path d="M444.147 595.102C444.092 595.028 457.349 593.102 471.106 625.682C472.088 628.056 481.196 649.005 499.904 654.553C502.351 655.281 505.347 655.833 508.756 655.833C514.993 655.833 522.625 654.004 531.089 648.124C535.574 645.061 536.672 638.94 533.575 634.524C530.523 630.025 524.394 628.962 519.978 632.031C514.559 635.765 509.773 637.027 505.515 635.765C497.198 633.353 490.967 622.256 489.223 618.141C468.204 568.203 441.483 575.419 438.519 576.352C433.393 578.065 430.348 583.68 432.054 588.837C433.736 593.966 438.959 596.749 444.147 595.102Z" fill="black"/>
<path d="M543.806 882.322C518.98 888.024 480.096 840.697 461.315 809.666C458.49 805.033 452.501 803.582 447.855 806.376C443.233 809.187 441.74 815.158 444.526 819.825C449.889 828.72 495.832 902.337 539.831 902.337C542.589 902.337 545.291 902.033 548.018 901.46C553.333 900.271 556.619 895.048 555.483 889.755C554.329 884.465 549.113 881.196 543.806 882.322Z" fill="black"/>
<path d="M441.627 758.759C446.445 758.759 450.654 755.182 451.322 750.263C452 744.897 448.263 739.971 442.896 739.247C421.549 736.412 410.889 698.458 408.333 682.753C412.781 614.17 388.336 588.861 387.266 587.799C383.522 584.044 377.431 584.019 373.603 587.739C369.768 591.445 369.67 597.64 373.288 601.531C373.491 601.752 392.786 623.102 388.713 682.522L388.804 684.627C389.231 687.421 399.432 753.228 440.298 758.643L441.627 758.759Z" fill="black"/>
<path d="M484.821 583.96C482.626 588.914 484.86 594.693 489.796 596.895L493.771 597.734C497.491 597.734 501.099 595.574 502.711 591.917C512.912 568.93 502.211 528.595 500.942 524.05L499.945 521.676C474.34 478.422 508.941 434.882 510.399 433.053C512.381 430.627 512.85 427.575 512.227 424.733C515.559 428.589 519.164 432.469 523.369 436.347C525.271 438.084 527.645 438.958 530.036 438.958C532.697 438.958 535.298 437.895 537.221 435.819C540.902 431.84 540.658 425.631 536.714 421.967C518.922 405.535 510.507 390.02 512.269 377.126C514.454 361.086 531.778 351.961 532.232 351.72C537.032 349.29 538.987 343.416 536.585 338.595C534.151 333.774 528.271 331.774 523.429 334.204C522.342 334.749 496.673 347.863 492.918 374.228C490.88 388.411 495.67 403.123 506.899 418.17C502.942 416.324 498.159 417.128 495.24 420.677C493.408 422.908 451.091 475.765 482.398 530.48C485.213 541.318 490.81 570.444 484.821 583.96Z" fill="black"/>
<path d="M887.245 604.88C901.936 514.495 864.783 484.289 851.826 476.688C856.84 417.527 823.532 392.271 812.694 385.73C811.733 374.881 808.667 364.694 803.216 355.293C782.288 319.384 735.455 307.815 728.805 306.316C713.394 290.265 696.962 282 679.649 282L678.737 282.017C648.999 282.507 626.292 307.06 615.548 321.275C604.791 307.06 582.083 282.507 552.345 282.017L551.422 282C534.134 282 517.688 290.265 502.295 306.316C495.631 307.815 448.815 319.38 427.849 355.293C422.405 364.69 419.287 374.881 418.388 385.73C407.55 392.271 374.232 417.524 379.249 476.667C366.355 484.271 329.136 514.464 343.83 604.863C340.204 611.624 317.361 656.717 329.545 699.954C332.384 709.921 337.11 718.815 343.127 726.909C341.991 738.219 340.571 791.65 406.187 840.736C431.219 859.492 454.807 886.842 476.28 921.947L478.392 924.412C479.738 925.558 507.581 948 540.92 948C547.189 948 553.67 947.199 560.191 945.263C583.349 938.609 601.798 919.79 615.443 889.517C629.064 919.79 647.545 938.609 670.689 945.263C677.234 947.199 683.701 948 689.956 948C723.302 947.983 751.135 925.558 752.519 924.412L754.627 921.947C776.093 886.863 799.654 859.524 824.724 840.736C890.217 791.72 888.864 738.31 887.731 726.926C893.836 718.836 898.541 709.921 901.335 699.954C913.722 656.78 890.916 611.719 887.245 604.88ZM604.179 865.296C592.404 899.806 575.895 920.374 554.974 926.436C527.054 934.627 498.243 914.71 492.093 910.137C469.599 873.673 444.644 845.039 417.986 825.045C378.525 795.503 366.876 765.184 363.621 746.396C366.768 748.637 369.771 750.934 373.323 752.941L378.095 754.147C381.525 754.147 384.853 752.354 386.65 749.134C389.321 744.425 387.636 738.457 382.913 735.8C334.82 708.921 343.456 659.965 353.137 632.668L357.681 633.926L359.877 633.682C365.167 632.472 368.439 627.196 367.222 621.914C348.766 541.978 369.96 509.751 382.721 498.196C385.154 509.398 388.689 521.449 393.905 534.71C395.433 538.573 399.138 540.898 403.012 540.898L406.638 540.22C411.676 538.22 414.147 532.518 412.147 527.529C383.5 455.156 405.421 421.715 419.867 408.706C420.741 413.412 421.622 418.118 423.23 423.016C424.545 427.148 428.404 429.788 432.558 429.788L435.55 429.319C440.725 427.655 443.508 422.124 441.83 416.978C435.397 397.071 436.39 379.654 444.798 365.145C453.472 350.136 468.746 340.245 481.975 334.075C481.133 337.948 482.654 342.081 486.22 344.339C490.73 347.217 496.82 345.927 499.718 341.347C516.507 314.898 533.942 301.515 551.457 301.515L551.964 301.533C577.773 301.924 598.714 330.746 604.133 338.934L604.179 865.296ZM813.149 825.049C786.459 845.06 761.532 873.694 739.038 910.179C732.906 914.769 704.154 934.596 676.262 926.481C655.351 920.433 638.762 899.89 626.959 865.355V338.969C634.731 326.918 655.656 302.001 679.094 301.627L679.604 301.606C697.151 301.606 714.52 315.028 731.378 341.438C734.287 346.021 740.391 347.328 744.88 344.43C748.443 342.182 749.939 338.039 749.128 334.166C762.385 340.354 777.597 350.223 786.281 365.215C794.7 379.716 795.679 397.162 789.249 417.052C787.582 422.205 790.396 427.725 795.521 429.393L798.524 429.861C802.681 429.861 806.503 427.218 807.842 423.086C809.446 418.188 810.327 413.465 811.226 408.766C825.633 421.796 847.593 455.208 818.959 527.595C816.97 532.609 819.435 538.307 824.466 540.29L828.067 540.978C831.965 540.978 835.639 538.647 837.174 534.787C842.446 521.537 845.928 509.496 848.376 498.301C861.119 509.856 882.312 542.066 863.881 621.984C862.668 627.263 865.94 632.503 871.23 633.748L873.422 633.996L877.806 632.825C883.473 648.953 888.861 672.488 882.624 694.64C877.764 711.974 866.171 725.843 848.229 735.845C843.526 738.488 841.817 744.46 844.477 749.2C846.278 752.413 849.634 754.214 853.046 754.214L857.829 752.987C861.371 750.997 864.353 748.686 867.475 746.466C864.279 765.223 852.574 795.548 813.149 825.049Z" fill="black"/>
<path d="M698.969 351.744C699.144 351.838 716.558 360.953 718.848 377.014C720.743 389.918 712.268 405.483 694.445 421.97C690.498 425.655 690.232 431.843 693.924 435.822C695.886 437.899 698.462 438.961 701.126 438.961C703.493 438.961 705.846 438.087 707.783 436.35C711.964 432.459 715.562 428.588 718.928 424.753C718.296 427.592 718.736 430.648 720.76 433.074C721.131 433.508 756.963 478.212 731.207 521.697L730.21 524.05C728.987 528.556 718.257 568.93 728.452 591.917C730.06 595.57 733.654 597.734 737.409 597.734L741.367 596.895C746.303 594.693 748.544 588.892 746.342 583.959C740.937 571.793 744.87 545.247 748.771 530.497C780.069 475.765 737.72 422.925 735.878 420.694C733.035 417.167 728.207 416.342 724.253 418.188C735.504 403.144 740.286 388.429 738.252 374.245C734.525 347.881 708.828 334.77 707.737 334.225C702.902 331.816 697.025 333.791 694.592 338.616C692.18 343.437 694.131 349.311 698.969 351.744Z" fill="black"/>
<path d="M785.518 782.291C767.495 781.333 744.603 776.872 737.957 760.881C730.807 743.701 743.264 719.347 751.462 710.11C795.747 660.619 796.989 619.278 797.031 617.554C797.146 612.167 792.86 607.74 787.5 607.604C781.98 607.328 777.631 611.74 777.442 617.096C777.442 617.477 775.879 653.386 736.845 697.063C733.436 700.807 729.307 707.027 725.654 714.355C723.588 714.431 721.5 715.005 719.745 716.459C714.452 720.819 698.111 731.723 685.386 729.779C680.306 728.972 676.355 726.14 673.027 720.955C670.1 716.41 664 715.085 659.504 718.011C654.952 720.938 653.599 727.004 656.557 731.559C662.905 741.453 671.88 747.529 682.477 749.137C684.504 749.463 686.539 749.553 688.546 749.553C699.024 749.553 709.128 745.694 717.046 741.502C715.858 750.473 716.277 759.671 719.903 768.342C728.391 788.738 750.123 799.947 784.514 801.782L785 801.799C790.224 801.799 794.503 797.747 794.793 792.482C795.062 787.189 790.912 782.574 785.518 782.291Z" fill="black"/>
<path d="M725.659 635.804C721.362 637.013 716.65 635.842 711.196 632.056C706.801 628.965 700.634 630.066 697.575 634.545C694.54 638.985 695.603 645.086 700.06 648.166C708.563 654.022 716.153 655.854 722.422 655.854C725.83 655.854 728.82 655.319 731.267 654.595C749.957 649.085 759.096 628.081 760.047 625.784C773.381 594.151 786.013 595.193 786.946 595.126C792.015 596.581 797.162 593.756 798.843 588.802C800.525 583.645 797.752 578.107 792.669 576.405C789.669 575.422 762.994 568.206 741.968 618.225C740.234 622.26 733.962 633.356 725.659 635.804Z" fill="black"/>
<path d="M685.216 552.358L688.971 551.62C693.956 549.565 696.334 543.845 694.264 538.821C668.63 476.922 692.205 384.943 692.39 384.024C693.775 378.776 690.628 373.427 685.387 372.077C680.126 370.584 674.826 373.836 673.487 379.052C672.417 383.069 648.035 478.272 676.193 546.331C677.745 550.089 681.332 552.358 685.216 552.358Z" fill="black"/>
<path d="M707.179 815.364C712.514 814.522 716.153 809.508 715.307 804.201C714.458 798.835 709.301 795.244 704.127 796.045C702.099 796.37 654.548 804.404 641.714 853.129C640.333 858.352 643.451 863.691 648.657 865.068L651.15 865.415C655.524 865.415 659.506 862.506 660.621 858.104C670.141 822.024 705.476 815.63 707.179 815.364Z" fill="black"/>
<path d="M783.261 806.376C778.705 803.6 772.622 805.054 769.807 809.666C751.023 840.697 712.038 888.105 687.32 882.322C682.003 881.196 676.793 884.462 675.615 889.751C674.423 895.062 677.751 900.268 683.03 901.474C685.785 902.03 688.463 902.355 691.257 902.355C735.266 902.355 781.191 828.737 786.526 819.839C789.382 815.172 787.91 809.166 783.261 806.376Z" fill="black"/>
<path d="M857.778 601.549C861.505 597.713 861.453 591.581 857.684 587.795C853.88 583.977 847.66 583.977 843.829 587.795C842.759 588.858 818.31 614.166 822.785 682.75C820.38 697.594 809.511 736.411 788.195 739.243C782.884 739.967 779.094 744.893 779.787 750.26C780.454 755.175 784.667 758.755 789.478 758.755L790.785 758.685C831.659 753.224 841.843 687.413 842.283 684.62L842.371 682.554C838.357 623.599 857.278 602.136 857.778 601.549Z" fill="black"/>
<path d="M695.668 611.25C701.003 610.485 704.747 605.531 704.01 600.182C703.199 594.805 698.129 591.151 692.944 591.85C684.648 593.05 653.099 594.616 649.292 580.824C647.876 575.6 642.516 572.594 637.276 573.954C632.035 575.38 628.972 580.764 630.388 585.977C636.489 608.39 662.679 612.264 680.145 612.264C687.833 612.247 693.902 611.481 695.668 611.25Z" fill="black"/>
<circle cx="615" cy="615" r="597" stroke="black" stroke-width="36"/>
</svg>
