<svg width="1230" height="1230" viewBox="0 0 1230 1230" fill="none" xmlns="http://www.w3.org/2000/svg">
<path d="M412.47 895.137C441.758 919.669 476.444 936.912 513.684 945.453C517.247 946.618 519.645 941.956 517.247 939.625C437.482 863.535 481.311 781.185 513.684 744.056C536.764 717.549 569.636 673.894 567.238 615.353C567.238 609.492 573.233 604.797 577.962 608.326C623.223 631.736 654.163 683.251 662.489 725.375C675.611 712.521 680.374 692.608 680.374 675.059C680.374 669.198 687.501 664.503 693.463 669.198C736.326 707.826 810.13 838.927 691.065 941.923C688.7 944.287 691.065 948.983 693.463 947.817C729.566 938.354 763.517 922.053 793.477 899.799C987.544 749.95 861.319 484.218 779.156 396.44C768.465 385.884 749.415 392.91 749.415 408.128C748.216 439.763 738.691 474.861 713.712 498.271C694.662 418.684 631.183 328.276 540.694 283.787C528.804 277.926 514.516 287.284 515.715 300.171C518.046 409.061 447.007 478.391 385.094 568.533C330.307 649.285 294.605 797.968 412.47 895.137Z" fill="black"/>
<circle cx="615" cy="615" r="597" stroke="black" stroke-width="36"/>
</svg>
