<svg width="1230" height="1230" viewBox="0 0 1230 1230" fill="none" xmlns="http://www.w3.org/2000/svg">
<path d="M546.824 283.465C533.113 286.783 532.892 287.446 534.44 348.703C535.988 423.67 540.853 446.89 566.726 502.397C589.062 550.385 589.946 553.702 589.725 593.066C589.725 624.026 589.062 629.333 583.533 647.246C575.351 674.225 565.842 691.474 551.025 706.07C521.613 735.26 484.904 742.558 421.435 732.164C388.927 726.857 370.573 727.52 350.67 735.039C318.604 746.76 297.595 770.864 288.971 805.805C286.538 815.757 285.211 836.765 284.327 879.446L283 939.154L288.086 943.577C292.509 947.558 296.047 948 328.998 948C360.621 948 365.486 947.558 369.467 944.019C373.447 940.26 373.89 936.501 374.774 897.579C375.438 859.101 375.88 854.235 380.303 845.169C388.485 828.583 404.85 822.833 420.109 831.237C424.089 833.448 436.694 843.178 448.636 852.909C487.557 885.195 508.787 898.243 542.401 910.185C625.108 940.039 724.18 921.905 802.907 862.86C873.231 810.228 920.776 732.828 939.352 640.832C957.707 549.058 938.91 472.985 882.519 412.834C846.693 374.576 808.657 357.327 754.698 354.895C707.152 352.904 679.067 363.298 648.328 394.7C638.819 404.431 630.637 411.065 629.973 409.738C626.877 404.873 624.224 368.827 624.224 330.569V290.1L618.474 286.34C614.051 283.465 606.532 282.581 583.754 282.139C567.611 281.696 551.025 282.36 546.824 283.465ZM780.129 397.354C831.656 410.401 874.115 452.197 891.364 506.82C899.768 533.357 901.758 547.068 901.537 580.903C901.537 620.487 895.124 654.764 881.855 688.157C846.251 778.162 769.293 848.928 679.509 874.138C663.145 878.782 656.068 879.446 623.118 879.446C590.389 879.446 583.312 878.782 567.832 874.359C521.392 860.87 489.99 833.448 485.788 802.93C484.682 794.969 485.567 791.652 489.769 785.46C495.297 777.278 499.057 775.73 527.584 768.653C582.649 755.163 617.589 715.358 634.617 647.246C637.713 634.419 638.156 624.468 637.492 590.854C635.723 509.916 636.165 488.907 640.588 475.86C648.77 451.755 658.943 436.939 678.846 420.353C705.825 398.017 746.516 388.729 780.129 397.354Z" fill="black"/>
<path d="M762.659 571.173C752.928 578.691 755.14 593.729 766.418 598.594C784.331 606.113 798.263 585.547 784.552 572.057C777.917 565.423 770.399 564.981 762.659 571.173Z" fill="black"/>
<path d="M717.327 614.296C710.693 618.94 711.356 627.785 718.433 631.102C726.394 634.862 731.48 631.102 731.48 621.814C731.48 612.969 724.625 609.209 717.327 614.296Z" fill="black"/>
<path d="M750.274 643.928C744.303 649.899 744.745 658.082 751.38 663.389C760.889 670.908 772.388 664.937 772.388 652.553C772.388 645.919 765.533 639.506 758.677 639.506C756.466 639.506 752.706 641.496 750.274 643.928Z" fill="black"/>
<path d="M644.792 690.147C642.58 692.359 636.388 702.531 630.86 712.704C619.139 734.597 594.15 761.134 575.574 771.749C561.642 779.489 532.23 789.883 523.826 789.883C509.673 789.883 501.712 799.613 507.241 810.007C517.413 829.246 544.393 847.38 574.468 855.341C597.688 861.533 651.868 861.091 676.194 854.457C740.768 836.765 809.101 781.922 844.705 719.338C855.099 700.983 856.647 691.917 850.012 688.157C847.137 686.83 810.87 685.946 747.181 685.946C653.416 685.946 648.33 686.167 644.792 690.147Z" fill="black"/>
<circle cx="615" cy="615" r="597" stroke="black" stroke-width="36"/>
</svg>
