<svg width="1230" height="1230" viewBox="0 0 1230 1230" fill="none" xmlns="http://www.w3.org/2000/svg">
<path d="M674.742 810.159H396.361C379.287 810.159 365.436 821.178 365.436 834.78V835.498C365.436 849.12 379.282 860.14 396.361 860.14H674.742C691.82 860.14 705.674 849.121 705.674 835.498V834.78C705.672 821.178 691.83 810.159 674.742 810.159Z" fill="black"/>
<path d="M356.079 776.984C356.991 777.283 357.795 777.682 358.653 778.25C360.148 779.237 361.819 780.814 363.749 783.017C365.191 784.643 366.766 786.597 368.601 788.691C371.359 791.824 374.739 795.383 379.492 798.276C381.86 799.712 384.573 800.938 387.535 801.776C390.501 802.614 393.727 803.052 397.094 803.052C400.998 803.062 404.703 802.464 408.059 801.347C410.996 800.368 413.629 799.023 415.924 797.496C419.942 794.814 422.92 791.703 425.398 788.91C427.248 786.796 428.833 784.841 430.299 783.186C432.482 780.684 434.318 778.958 435.974 777.97C436.822 777.472 437.61 777.103 438.557 776.833C439.499 776.584 440.597 776.394 442.082 776.394C443.802 776.394 445.004 776.634 446.051 776.983C446.959 777.282 447.767 777.68 448.63 778.249C450.126 779.236 451.796 780.812 453.715 783.016C455.161 784.642 456.736 786.596 458.577 788.69C461.335 791.822 464.711 795.381 469.468 798.274C471.837 799.721 474.54 800.937 477.516 801.775C480.487 802.612 483.704 803.051 487.07 803.051C490.975 803.061 494.689 802.463 498.031 801.345C500.973 800.367 503.606 799.022 505.899 797.495C509.923 794.813 512.89 791.701 515.364 788.909C517.235 786.795 518.814 784.84 520.275 783.185C522.455 780.682 524.3 778.956 525.96 777.969C526.792 777.471 527.59 777.101 528.538 776.832C529.476 776.582 530.583 776.392 532.058 776.392C533.779 776.392 534.985 776.633 536.023 776.982C536.936 777.281 537.744 777.679 538.605 778.247C540.101 779.235 541.772 780.811 543.692 783.015C545.147 784.641 546.719 786.594 548.554 788.689C551.312 791.821 554.686 795.38 559.449 798.273C561.818 799.719 564.514 800.936 567.492 801.773C570.47 802.611 573.68 803.049 577.047 803.049C580.956 803.06 584.66 802.461 588.017 801.344C590.949 800.366 593.587 799.021 595.88 797.494C599.9 794.812 602.881 791.7 605.35 788.907C607.205 786.794 608.8 784.838 610.247 783.184C612.43 780.681 614.276 778.955 615.947 777.968C616.769 777.47 617.577 777.1 618.514 776.831C619.452 776.581 620.559 776.391 622.04 776.391C623.76 776.391 624.962 776.632 626.009 776.98C626.928 777.28 627.73 777.678 628.588 778.246C630.087 779.233 631.754 780.81 633.688 783.013C635.135 784.639 636.705 786.602 638.551 788.687C641.293 791.82 644.683 795.379 649.436 798.272C651.804 799.718 654.512 800.934 657.488 801.772C660.456 802.61 663.677 803.058 667.038 803.058C670.947 803.058 674.662 802.46 678.003 801.343C680.935 800.365 683.578 799.02 685.87 797.492C689.895 794.81 692.872 791.699 695.346 788.906C697.19 786.792 698.786 784.837 700.242 783.183C702.425 780.68 704.271 778.954 705.932 777.966C706.765 777.468 707.563 777.099 708.509 776.84C709.457 776.58 710.554 776.39 712.04 776.39C718.164 776.39 723.14 771.414 723.14 765.281C723.14 759.149 718.164 754.172 712.04 754.172C708.125 754.172 704.422 754.771 701.064 755.887C698.127 756.855 695.485 758.211 693.201 759.727C689.182 762.409 686.205 765.51 683.727 768.322C681.877 770.427 680.281 772.391 678.825 774.037C676.65 776.539 674.796 778.264 673.14 779.262C672.292 779.76 671.504 780.12 670.567 780.388C669.62 780.658 668.512 780.828 667.037 780.828C665.321 780.828 664.11 780.598 663.063 780.26C662.156 779.96 661.353 779.542 660.484 778.974C658.988 777.998 657.313 776.402 655.394 774.207C653.948 772.581 652.367 770.638 650.542 768.523C647.78 765.411 644.408 761.841 639.646 758.959C637.268 757.513 634.57 756.297 631.592 755.439C628.616 754.611 625.404 754.172 622.039 754.172C618.129 754.172 614.425 754.76 611.068 755.887C608.136 756.855 605.492 758.211 603.204 759.727C599.186 762.409 596.208 765.51 593.735 768.322C591.87 770.427 590.284 772.391 588.828 774.037C586.644 776.539 584.809 778.264 583.138 779.262C582.301 779.76 581.507 780.12 580.571 780.388C579.633 780.658 578.526 780.828 577.045 780.828C575.324 780.828 574.113 780.598 573.076 780.26C572.165 779.96 571.357 779.542 570.493 778.974C569.002 777.998 567.332 776.402 565.407 774.207C563.96 772.581 562.39 770.638 560.554 768.544C557.791 765.411 554.422 761.842 549.66 758.959C547.281 757.513 544.589 756.297 541.606 755.439C538.64 754.611 535.413 754.163 532.057 754.172C528.153 754.162 524.438 754.76 521.087 755.887C518.155 756.855 515.511 758.201 513.218 759.727C509.198 762.409 506.222 765.51 503.748 768.322C501.893 770.427 500.312 772.391 498.851 774.037C496.672 776.539 494.821 778.264 493.161 779.262C492.329 779.76 491.531 780.12 490.594 780.388C489.636 780.647 488.54 780.828 487.068 780.828C485.349 780.828 484.136 780.598 483.089 780.26C482.181 779.96 481.373 779.542 480.521 778.974C479.016 777.998 477.355 776.402 475.42 774.207C473.974 772.571 472.409 770.627 470.563 768.544C467.816 765.411 464.435 761.842 459.678 758.959C457.31 757.513 454.591 756.297 451.629 755.439C448.662 754.611 445.446 754.163 442.081 754.172C438.167 754.162 434.467 754.76 431.101 755.887C428.169 756.855 425.546 758.201 423.251 759.727C419.228 762.409 416.25 765.51 413.777 768.322C411.917 770.417 410.336 772.391 408.881 774.037C406.697 776.539 404.842 778.264 403.196 779.262C402.348 779.76 401.551 780.12 400.613 780.388C399.675 780.647 398.568 780.818 397.093 780.828C395.372 780.818 394.166 780.598 393.118 780.26C392.212 779.96 391.409 779.542 390.54 778.974C389.055 777.998 387.374 776.412 385.459 774.207C384.009 772.571 382.437 770.627 380.603 768.533C377.845 765.411 374.464 761.852 369.712 758.949C367.345 757.513 364.636 756.297 361.665 755.439C358.692 754.611 355.476 754.163 352.105 754.172C345.972 754.172 341 759.149 341 765.281C341 771.414 345.972 776.39 352.105 776.39C353.83 776.394 355.036 776.634 356.079 776.984Z" fill="black"/>
<path d="M790.842 444.687L810.558 353.971L881.954 312.515L864.241 282L779.382 331.263L754.723 444.687H532.82L534.17 462.329L544.526 596.884C540.627 596.694 536.698 596.595 532.743 596.595C440.07 596.595 363.778 649.589 353.899 708.674C353.546 710.809 353.271 711.367 353.067 711.965C352.893 712.543 352.792 713.123 352.792 715.295C352.792 727.951 359.844 734.622 372.075 734.622H693.41C705.622 734.622 712.687 727.951 712.687 715.295C712.687 710.978 712.303 712.923 711.571 708.674C706.639 679.076 685.013 651.004 653.03 630.341C642.644 623.631 631.174 617.746 618.828 612.8C605.973 607.675 592.18 603.605 577.669 600.834L568.195 477.437H852.885L821.534 885.703H709.051C705.121 880.887 699.348 878.024 691.265 878.024H598.965H566.099H374.29C355.896 878.024 349.469 892.963 349.469 911.352V914.692C349.469 933.081 364.388 948 382.789 948H682.696C699.81 948 713.941 935.096 715.81 918.462H851.885L888.271 444.687H790.842ZM434.273 664.986C429.385 664.986 425.406 661.007 425.406 656.102C425.406 651.185 429.384 647.197 434.273 647.197C439.194 647.197 443.173 651.185 443.173 656.102C443.173 661.007 439.195 664.986 434.273 664.986ZM469.836 638.32C464.919 638.32 460.94 634.341 460.94 629.433C460.94 624.518 464.919 620.528 469.836 620.528C474.747 620.528 478.732 624.517 478.732 629.433C478.732 634.341 474.747 638.32 469.836 638.32ZM500.931 664.986C496.019 664.986 492.035 661.007 492.035 656.102C492.035 651.185 496.019 647.197 500.931 647.197C505.852 647.197 509.831 651.185 509.831 656.102C509.832 661.007 505.853 664.986 500.931 664.986ZM527.598 627.212C522.687 627.212 518.698 623.231 518.698 618.325C518.698 613.43 522.687 609.45 527.598 609.45C532.51 609.45 536.499 613.43 536.499 618.325C536.499 623.231 532.51 627.212 527.598 627.212ZM634.228 649.42C639.15 649.42 643.128 653.399 643.128 658.315C643.128 663.221 639.149 667.211 634.228 667.211C629.342 667.211 625.362 663.221 625.362 658.315C625.362 653.399 629.342 649.42 634.228 649.42ZM589.794 620.429C594.716 620.429 598.695 624.409 598.695 629.305C598.695 634.241 594.717 638.22 589.794 638.22C584.888 638.22 580.928 634.241 580.928 629.305C580.928 624.41 584.888 620.429 589.794 620.429ZM569.813 658.315C569.813 663.221 565.83 667.211 560.913 667.211C556.027 667.211 552.048 663.221 552.048 658.315C552.048 653.398 556.026 649.42 560.913 649.42C565.83 649.42 569.813 653.399 569.813 658.315Z" fill="black"/>
<circle cx="615" cy="615" r="597" stroke="black" stroke-width="36"/>
<path d="M222 212L1008 998" stroke="black" stroke-width="32"/>
<path d="M222 998L1008 212" stroke="black" stroke-width="32"/>
</svg>
