<svg width="1230" height="1230" viewBox="0 0 1230 1230" fill="none" xmlns="http://www.w3.org/2000/svg">
<mask id="path-1-outside-1_3712_265" maskUnits="userSpaceOnUse" x="248" y="275" width="734" height="680" fill="black">
<rect fill="white" x="248" y="275" width="734" height="680"/>
<path d="M545.904 284.42C525.37 291.307 507.77 304.832 500.57 319.483C494.437 331.755 492.837 339.52 493.104 357.677C493.237 373.957 495.104 387.481 502.437 424.674C506.97 448.091 507.77 484.657 503.77 496.053C494.704 522.601 485.504 519.22 469.237 483.655C461.237 465.873 457.904 460.488 451.504 454.478C444.17 447.59 436.97 445.461 424.704 446.338C408.304 447.465 393.237 455.605 387.237 466.374C386.037 468.503 385.104 473.136 385.104 476.643C385.104 490.543 397.104 503.817 426.837 522.35C447.37 535.124 456.037 541.51 457.637 545.016C459.77 550.151 458.437 559.543 454.97 562.924C450.304 567.182 432.037 566.43 402.17 560.795C362.837 553.407 348.17 553.532 330.837 561.797C324.17 564.927 312.17 574.194 312.17 576.198C312.17 576.824 314.037 577.575 316.17 578.076C318.304 578.577 320.17 579.329 320.17 579.955C320.17 580.581 318.437 580.581 316.17 579.955C312.304 578.953 309.37 580.205 312.17 581.833C312.837 582.209 313.504 583.586 313.504 584.713C313.504 586.341 313.104 586.216 311.37 583.962C308.704 580.205 307.37 580.456 304.837 585.089C302.304 589.597 302.837 590.975 306.037 588.094C307.237 586.967 308.17 586.466 308.17 587.093C308.17 587.719 306.437 589.597 304.17 591.475C300.704 594.356 300.17 595.608 300.17 601.494C300.17 614.768 309.237 626.163 323.637 631.172C336.037 635.555 348.97 636.432 378.704 634.929C410.704 633.301 437.904 634.053 447.504 636.808C461.504 640.815 471.37 652.586 471.37 665.359C471.504 671.495 470.837 673.123 467.37 677.256C461.904 683.642 454.704 687.274 444.17 688.777C439.37 689.528 417.637 690.154 395.904 690.154C361.904 690.154 356.17 690.405 356.17 692.032C356.17 693.034 354.97 694.412 353.504 695.163C351.637 696.04 350.837 696.04 350.837 695.163C350.837 694.537 351.504 693.911 352.17 693.911C352.97 693.911 353.504 693.034 353.504 691.907C353.504 690.029 352.304 689.904 344.437 690.655C306.304 694.287 282.304 710.065 266.037 742.123C259.237 755.648 256.304 765.791 255.237 779.566C252.304 818.261 276.837 844.183 316.17 844.183C335.37 844.183 362.97 836.669 389.504 824.147C407.637 815.631 414.304 812 445.504 792.715C474.837 774.682 493.237 765.415 508.57 760.907C530.837 754.27 541.504 758.653 537.37 772.804C536.037 777.312 533.237 780.818 523.637 789.709C502.97 809.119 495.104 826.902 493.904 856.956L493.104 874.237H496.304C499.37 874.362 499.37 874.362 496.837 875.74C495.37 876.491 494.037 877.243 493.77 877.368C492.837 878.119 498.17 899.783 501.504 908.299C508.57 926.457 521.104 941.484 532.837 946.117C539.504 948.747 550.304 948.622 556.97 945.742C571.237 939.606 584.97 919.194 594.704 889.64C606.57 853.45 622.837 826.902 637.904 818.637C659.104 806.991 678.837 814.003 722.57 848.941C745.504 867.099 757.104 875.114 769.104 880.749C778.17 885.007 781.77 886.009 790.037 886.509C798.57 887.01 800.837 886.635 806.97 883.88C821.504 877.618 830.837 866.974 830.837 856.706C830.837 841.553 814.704 827.653 773.904 807.742C765.77 803.735 756.97 799.226 754.57 797.849C747.237 793.591 745.77 795.47 751.504 801.856C753.37 803.985 754.57 805.989 754.17 806.364C753.77 806.74 753.37 806.74 753.104 806.49C752.837 806.239 749.904 802.858 746.437 798.976C742.97 795.094 740.17 791.337 740.17 790.586C740.17 789.96 739.237 789.083 738.17 788.707C734.304 787.205 728.17 777.562 728.17 772.804C728.17 766.167 734.437 755.522 741.37 750.639C750.57 744.002 759.104 742.374 779.37 743.125C788.97 743.626 800.037 744.252 803.904 744.753C810.304 745.504 810.837 745.379 810.037 743.25C809.37 740.996 809.37 740.996 811.237 743C812.57 744.628 813.37 744.878 814.57 743.751C816.17 742.248 816.304 742.499 816.704 745.504C816.704 746.381 819.504 747.508 822.704 748.134C827.237 749.011 828.97 748.76 830.57 747.257C832.304 745.755 832.304 745.003 830.837 743.501C829.504 741.873 829.504 741.497 831.237 741.497C833.904 741.497 835.237 745.129 833.37 747.383C832.437 748.259 832.037 749.261 832.304 749.512C832.57 749.762 840.97 751.265 850.837 752.767C871.237 755.898 899.637 756.649 910.037 754.145C932.037 749.136 945.37 735.862 952.304 711.944C958.437 690.905 953.77 675.002 939.237 667.363C920.837 657.595 894.037 658.472 836.837 670.368C807.77 676.379 794.437 677.757 781.637 676.254C752.037 672.873 744.57 653.588 765.77 635.681C771.504 630.922 779.637 626.539 796.17 619.526C798.037 618.775 799.904 617.648 800.437 616.897C801.104 616.145 801.504 616.27 801.504 617.397C801.504 618.399 802.304 618.775 803.504 618.274C804.704 617.898 820.437 614.642 838.57 611.136C895.104 600.241 916.037 594.606 936.837 584.588C951.237 577.701 965.237 564.677 969.237 554.659C975.37 539.381 976.437 508.951 971.37 491.795C965.237 470.381 950.704 456.231 928.97 450.345C916.704 446.964 890.037 448.216 874.837 452.85C858.97 457.608 848.704 462.242 835.237 470.381C820.437 479.523 810.57 488.414 797.104 504.819C782.57 522.476 770.17 533.746 760.037 538.505C749.77 543.388 746.837 543.388 740.97 538.63C737.637 535.75 735.904 532.869 734.17 526.733C729.77 511.456 732.704 499.935 749.504 466.625C754.704 456.481 760.97 442.456 763.637 435.568C776.704 400.38 774.437 361.309 758.704 350.539C745.904 341.648 716.437 348.786 700.17 364.565C686.037 378.34 676.704 399.754 669.504 434.441C661.237 473.762 659.904 479.272 656.037 486.911C647.77 503.316 635.504 504.067 624.437 488.664C620.17 482.779 615.77 470.256 616.037 464.746C616.437 457.733 620.437 446.588 627.504 433.439C643.637 403.135 648.57 386.73 648.704 362.686C648.837 350.289 648.17 344.654 646.304 338.893C637.37 311.344 614.837 291.307 584.57 283.919C573.37 281.164 554.837 281.414 545.904 284.42ZM586.304 299.447C608.704 306.71 625.77 323.24 631.637 343.652C632.704 347.284 633.504 355.549 633.504 362.186C633.637 382.848 629.104 397.374 612.57 430.058C603.104 448.592 602.437 450.345 601.904 460.238C600.97 472.385 602.837 480.9 608.437 491.419C622.837 518.468 651.77 521.849 667.37 498.182C672.304 490.668 676.17 478.145 681.37 452.223C684.304 437.447 688.304 420.165 690.17 414.029C696.97 392.115 707.504 375.96 719.904 368.447C727.37 363.939 742.037 360.057 746.97 361.184C754.437 362.937 758.037 379.467 756.037 401.131C754.437 417.035 749.77 431.561 739.904 451.597C717.77 496.554 716.837 499.058 717.77 518.343C718.304 529.864 718.837 531.993 722.97 539.506C726.17 545.517 729.237 549.024 733.237 551.779C738.57 555.16 740.037 555.535 749.237 555.535C758.437 555.535 760.437 555.035 768.17 551.153C778.97 545.643 796.304 529.739 809.77 512.958C825.37 493.548 838.704 483.029 860.704 473.387C905.237 453.851 942.837 460.614 954.704 490.292C961.237 506.697 960.837 537.628 954.037 550.777C944.437 569.436 917.77 580.831 855.237 593.103C793.504 605.125 779.904 608.882 764.97 618.149C755.104 624.285 746.037 633.802 741.904 642.067C739.104 647.953 738.57 650.457 739.104 658.221C739.504 665.985 740.17 668.239 743.504 672.873C751.637 683.642 765.37 689.653 784.837 691.031C797.904 691.907 812.304 690.154 839.104 684.519C880.437 675.753 906.17 673.248 921.77 676.254C939.637 679.76 943.904 692.533 934.837 715.826C930.97 725.468 920.837 735.11 911.37 738.241C901.637 741.497 880.97 742.123 861.904 739.744C846.837 737.865 845.504 737.865 841.77 739.869C837.904 741.998 837.77 741.998 833.237 738.241C828.97 734.735 826.704 734.109 810.704 731.729C765.77 725.092 745.104 727.597 729.104 741.372C722.437 747.257 715.637 758.277 713.637 766.918C710.704 778.815 716.437 790.836 729.504 800.103C735.237 804.236 735.37 804.236 736.437 801.731C736.97 800.103 738.57 799.101 740.437 799.101H743.37L740.437 801.105C736.704 803.484 738.037 805.864 742.437 804.736C746.304 803.86 749.504 805.864 749.504 809.245C749.504 810.873 753.637 813.502 763.904 818.637C799.637 836.544 814.837 847.439 814.837 855.578C814.837 860.838 805.637 869.604 798.304 871.607C784.97 874.989 771.237 868.101 734.037 839.174C708.17 819.138 699.104 812.876 686.97 807.116C662.97 795.72 641.37 796.346 625.104 808.994C607.504 822.769 594.57 844.559 580.037 885.132C569.637 914.185 561.637 927.208 550.437 932.718C537.104 939.105 519.77 920.321 511.904 891.143C508.037 876.366 507.637 849.067 511.37 836.794C515.77 821.642 521.237 813.127 534.57 800.354C548.437 786.954 552.17 781.069 553.104 770.55C554.97 752.016 540.437 741.121 518.304 744.127C497.77 746.882 474.57 757.526 431.504 784.074C414.57 794.468 399.237 803.609 397.104 804.486C395.104 805.237 393.104 806.991 392.704 808.243C391.904 810.747 386.837 813.753 386.837 811.624C386.837 810.998 387.504 810.372 388.437 810.372C389.237 810.372 389.637 810.121 389.237 809.746C388.837 809.37 382.837 811.624 375.904 814.629C358.97 822.018 340.57 827.402 326.57 829.156C301.904 832.286 282.704 824.147 274.704 807.366C263.904 784.199 272.704 749.512 294.97 727.096C314.837 707.185 334.437 702.802 394.837 704.43C443.637 705.682 460.17 703.052 473.504 691.782C483.637 683.267 486.17 678.007 486.17 665.109C486.17 656.844 485.504 653.087 483.237 648.579C475.504 632.675 462.304 624.16 439.904 620.653C435.77 620.027 434.97 620.278 435.637 621.906C436.704 624.285 435.77 624.285 430.57 621.78C428.437 620.653 426.97 620.403 427.37 621.154C427.904 621.906 427.37 622.532 426.304 622.532C425.104 622.532 424.17 623.033 424.17 623.784C424.17 625.412 425.904 625.412 427.637 623.784C428.437 623.033 429.504 623.408 430.437 624.911C431.77 627.04 431.637 627.165 429.104 626.539C426.437 625.913 426.437 626.038 428.037 627.916C429.104 629.169 429.237 630.045 428.437 630.045C425.77 630.045 421.37 623.534 422.837 621.906C425.37 619.025 420.837 618.775 389.237 620.152C372.17 620.904 353.104 621.279 346.837 620.904C326.837 619.902 315.37 612.889 315.637 601.869C316.037 586.091 335.637 571.439 357.637 570.187C368.437 569.561 373.504 570.187 407.504 576.448C447.37 583.711 465.104 580.956 471.637 566.555C474.037 561.296 474.037 544.766 471.637 539.506C469.104 533.621 459.237 525.732 438.304 512.332C401.37 488.79 394.037 479.022 405.237 468.503C411.637 462.367 422.837 458.986 431.904 460.488C435.37 460.989 439.237 461.24 440.57 461.115C441.77 460.989 442.837 461.49 442.837 462.116C442.837 462.868 442.17 463.494 441.237 463.494C440.437 463.494 440.704 464.496 442.17 465.998C443.37 467.251 445.104 468.252 446.037 468.127C446.837 468.002 447.37 468.879 447.104 470.006C446.97 471.258 447.77 474.013 448.97 476.267C450.17 478.396 453.637 485.909 456.704 492.797C463.504 508.2 471.77 519.971 479.104 524.604C486.57 529.113 496.17 529.363 502.704 524.98C517.237 515.212 524.704 487.412 521.77 454.478C519.904 433.815 515.237 407.392 512.704 403.761C511.637 402.258 511.237 400.129 511.637 399.127C512.037 398.126 511.37 390.487 510.304 382.097C506.57 354.797 508.17 338.768 516.304 324.492C522.97 312.846 535.504 303.204 551.504 297.819C559.904 294.939 574.704 295.69 586.304 299.447ZM796.304 611.136C795.37 611.762 794.037 613.014 793.37 613.891C792.57 615.143 792.17 614.893 792.17 612.764C792.17 610.76 792.97 610.009 795.237 610.009C797.37 610.009 797.637 610.385 796.304 611.136ZM822.837 740.871C821.504 742.374 821.504 743.125 822.837 744.628C824.037 746.005 824.037 746.506 822.97 746.506C820.97 746.506 819.637 743.25 820.704 740.871C821.104 739.869 822.17 738.992 822.97 738.992C824.037 738.992 824.037 739.493 822.837 740.871ZM353.504 832.912C353.504 833.539 352.704 834.165 351.637 834.165C350.57 834.165 349.37 835.167 349.104 836.294C348.57 838.047 348.437 837.922 348.304 835.793C348.17 833.413 349.637 832.036 352.57 831.785C353.104 831.66 353.504 832.161 353.504 832.912Z"/>
</mask>
<path d="M545.904 284.42C525.37 291.307 507.77 304.832 500.57 319.483C494.437 331.755 492.837 339.52 493.104 357.677C493.237 373.957 495.104 387.481 502.437 424.674C506.97 448.091 507.77 484.657 503.77 496.053C494.704 522.601 485.504 519.22 469.237 483.655C461.237 465.873 457.904 460.488 451.504 454.478C444.17 447.59 436.97 445.461 424.704 446.338C408.304 447.465 393.237 455.605 387.237 466.374C386.037 468.503 385.104 473.136 385.104 476.643C385.104 490.543 397.104 503.817 426.837 522.35C447.37 535.124 456.037 541.51 457.637 545.016C459.77 550.151 458.437 559.543 454.97 562.924C450.304 567.182 432.037 566.43 402.17 560.795C362.837 553.407 348.17 553.532 330.837 561.797C324.17 564.927 312.17 574.194 312.17 576.198C312.17 576.824 314.037 577.575 316.17 578.076C318.304 578.577 320.17 579.329 320.17 579.955C320.17 580.581 318.437 580.581 316.17 579.955C312.304 578.953 309.37 580.205 312.17 581.833C312.837 582.209 313.504 583.586 313.504 584.713C313.504 586.341 313.104 586.216 311.37 583.962C308.704 580.205 307.37 580.456 304.837 585.089C302.304 589.597 302.837 590.975 306.037 588.094C307.237 586.967 308.17 586.466 308.17 587.093C308.17 587.719 306.437 589.597 304.17 591.475C300.704 594.356 300.17 595.608 300.17 601.494C300.17 614.768 309.237 626.163 323.637 631.172C336.037 635.555 348.97 636.432 378.704 634.929C410.704 633.301 437.904 634.053 447.504 636.808C461.504 640.815 471.37 652.586 471.37 665.359C471.504 671.495 470.837 673.123 467.37 677.256C461.904 683.642 454.704 687.274 444.17 688.777C439.37 689.528 417.637 690.154 395.904 690.154C361.904 690.154 356.17 690.405 356.17 692.032C356.17 693.034 354.97 694.412 353.504 695.163C351.637 696.04 350.837 696.04 350.837 695.163C350.837 694.537 351.504 693.911 352.17 693.911C352.97 693.911 353.504 693.034 353.504 691.907C353.504 690.029 352.304 689.904 344.437 690.655C306.304 694.287 282.304 710.065 266.037 742.123C259.237 755.648 256.304 765.791 255.237 779.566C252.304 818.261 276.837 844.183 316.17 844.183C335.37 844.183 362.97 836.669 389.504 824.147C407.637 815.631 414.304 812 445.504 792.715C474.837 774.682 493.237 765.415 508.57 760.907C530.837 754.27 541.504 758.653 537.37 772.804C536.037 777.312 533.237 780.818 523.637 789.709C502.97 809.119 495.104 826.902 493.904 856.956L493.104 874.237H496.304C499.37 874.362 499.37 874.362 496.837 875.74C495.37 876.491 494.037 877.243 493.77 877.368C492.837 878.119 498.17 899.783 501.504 908.299C508.57 926.457 521.104 941.484 532.837 946.117C539.504 948.747 550.304 948.622 556.97 945.742C571.237 939.606 584.97 919.194 594.704 889.64C606.57 853.45 622.837 826.902 637.904 818.637C659.104 806.991 678.837 814.003 722.57 848.941C745.504 867.099 757.104 875.114 769.104 880.749C778.17 885.007 781.77 886.009 790.037 886.509C798.57 887.01 800.837 886.635 806.97 883.88C821.504 877.618 830.837 866.974 830.837 856.706C830.837 841.553 814.704 827.653 773.904 807.742C765.77 803.735 756.97 799.226 754.57 797.849C747.237 793.591 745.77 795.47 751.504 801.856C753.37 803.985 754.57 805.989 754.17 806.364C753.77 806.74 753.37 806.74 753.104 806.49C752.837 806.239 749.904 802.858 746.437 798.976C742.97 795.094 740.17 791.337 740.17 790.586C740.17 789.96 739.237 789.083 738.17 788.707C734.304 787.205 728.17 777.562 728.17 772.804C728.17 766.167 734.437 755.522 741.37 750.639C750.57 744.002 759.104 742.374 779.37 743.125C788.97 743.626 800.037 744.252 803.904 744.753C810.304 745.504 810.837 745.379 810.037 743.25C809.37 740.996 809.37 740.996 811.237 743C812.57 744.628 813.37 744.878 814.57 743.751C816.17 742.248 816.304 742.499 816.704 745.504C816.704 746.381 819.504 747.508 822.704 748.134C827.237 749.011 828.97 748.76 830.57 747.257C832.304 745.755 832.304 745.003 830.837 743.501C829.504 741.873 829.504 741.497 831.237 741.497C833.904 741.497 835.237 745.129 833.37 747.383C832.437 748.259 832.037 749.261 832.304 749.512C832.57 749.762 840.97 751.265 850.837 752.767C871.237 755.898 899.637 756.649 910.037 754.145C932.037 749.136 945.37 735.862 952.304 711.944C958.437 690.905 953.77 675.002 939.237 667.363C920.837 657.595 894.037 658.472 836.837 670.368C807.77 676.379 794.437 677.757 781.637 676.254C752.037 672.873 744.57 653.588 765.77 635.681C771.504 630.922 779.637 626.539 796.17 619.526C798.037 618.775 799.904 617.648 800.437 616.897C801.104 616.145 801.504 616.27 801.504 617.397C801.504 618.399 802.304 618.775 803.504 618.274C804.704 617.898 820.437 614.642 838.57 611.136C895.104 600.241 916.037 594.606 936.837 584.588C951.237 577.701 965.237 564.677 969.237 554.659C975.37 539.381 976.437 508.951 971.37 491.795C965.237 470.381 950.704 456.231 928.97 450.345C916.704 446.964 890.037 448.216 874.837 452.85C858.97 457.608 848.704 462.242 835.237 470.381C820.437 479.523 810.57 488.414 797.104 504.819C782.57 522.476 770.17 533.746 760.037 538.505C749.77 543.388 746.837 543.388 740.97 538.63C737.637 535.75 735.904 532.869 734.17 526.733C729.77 511.456 732.704 499.935 749.504 466.625C754.704 456.481 760.97 442.456 763.637 435.568C776.704 400.38 774.437 361.309 758.704 350.539C745.904 341.648 716.437 348.786 700.17 364.565C686.037 378.34 676.704 399.754 669.504 434.441C661.237 473.762 659.904 479.272 656.037 486.911C647.77 503.316 635.504 504.067 624.437 488.664C620.17 482.779 615.77 470.256 616.037 464.746C616.437 457.733 620.437 446.588 627.504 433.439C643.637 403.135 648.57 386.73 648.704 362.686C648.837 350.289 648.17 344.654 646.304 338.893C637.37 311.344 614.837 291.307 584.57 283.919C573.37 281.164 554.837 281.414 545.904 284.42ZM586.304 299.447C608.704 306.71 625.77 323.24 631.637 343.652C632.704 347.284 633.504 355.549 633.504 362.186C633.637 382.848 629.104 397.374 612.57 430.058C603.104 448.592 602.437 450.345 601.904 460.238C600.97 472.385 602.837 480.9 608.437 491.419C622.837 518.468 651.77 521.849 667.37 498.182C672.304 490.668 676.17 478.145 681.37 452.223C684.304 437.447 688.304 420.165 690.17 414.029C696.97 392.115 707.504 375.96 719.904 368.447C727.37 363.939 742.037 360.057 746.97 361.184C754.437 362.937 758.037 379.467 756.037 401.131C754.437 417.035 749.77 431.561 739.904 451.597C717.77 496.554 716.837 499.058 717.77 518.343C718.304 529.864 718.837 531.993 722.97 539.506C726.17 545.517 729.237 549.024 733.237 551.779C738.57 555.16 740.037 555.535 749.237 555.535C758.437 555.535 760.437 555.035 768.17 551.153C778.97 545.643 796.304 529.739 809.77 512.958C825.37 493.548 838.704 483.029 860.704 473.387C905.237 453.851 942.837 460.614 954.704 490.292C961.237 506.697 960.837 537.628 954.037 550.777C944.437 569.436 917.77 580.831 855.237 593.103C793.504 605.125 779.904 608.882 764.97 618.149C755.104 624.285 746.037 633.802 741.904 642.067C739.104 647.953 738.57 650.457 739.104 658.221C739.504 665.985 740.17 668.239 743.504 672.873C751.637 683.642 765.37 689.653 784.837 691.031C797.904 691.907 812.304 690.154 839.104 684.519C880.437 675.753 906.17 673.248 921.77 676.254C939.637 679.76 943.904 692.533 934.837 715.826C930.97 725.468 920.837 735.11 911.37 738.241C901.637 741.497 880.97 742.123 861.904 739.744C846.837 737.865 845.504 737.865 841.77 739.869C837.904 741.998 837.77 741.998 833.237 738.241C828.97 734.735 826.704 734.109 810.704 731.729C765.77 725.092 745.104 727.597 729.104 741.372C722.437 747.257 715.637 758.277 713.637 766.918C710.704 778.815 716.437 790.836 729.504 800.103C735.237 804.236 735.37 804.236 736.437 801.731C736.97 800.103 738.57 799.101 740.437 799.101H743.37L740.437 801.105C736.704 803.484 738.037 805.864 742.437 804.736C746.304 803.86 749.504 805.864 749.504 809.245C749.504 810.873 753.637 813.502 763.904 818.637C799.637 836.544 814.837 847.439 814.837 855.578C814.837 860.838 805.637 869.604 798.304 871.607C784.97 874.989 771.237 868.101 734.037 839.174C708.17 819.138 699.104 812.876 686.97 807.116C662.97 795.72 641.37 796.346 625.104 808.994C607.504 822.769 594.57 844.559 580.037 885.132C569.637 914.185 561.637 927.208 550.437 932.718C537.104 939.105 519.77 920.321 511.904 891.143C508.037 876.366 507.637 849.067 511.37 836.794C515.77 821.642 521.237 813.127 534.57 800.354C548.437 786.954 552.17 781.069 553.104 770.55C554.97 752.016 540.437 741.121 518.304 744.127C497.77 746.882 474.57 757.526 431.504 784.074C414.57 794.468 399.237 803.609 397.104 804.486C395.104 805.237 393.104 806.991 392.704 808.243C391.904 810.747 386.837 813.753 386.837 811.624C386.837 810.998 387.504 810.372 388.437 810.372C389.237 810.372 389.637 810.121 389.237 809.746C388.837 809.37 382.837 811.624 375.904 814.629C358.97 822.018 340.57 827.402 326.57 829.156C301.904 832.286 282.704 824.147 274.704 807.366C263.904 784.199 272.704 749.512 294.97 727.096C314.837 707.185 334.437 702.802 394.837 704.43C443.637 705.682 460.17 703.052 473.504 691.782C483.637 683.267 486.17 678.007 486.17 665.109C486.17 656.844 485.504 653.087 483.237 648.579C475.504 632.675 462.304 624.16 439.904 620.653C435.77 620.027 434.97 620.278 435.637 621.906C436.704 624.285 435.77 624.285 430.57 621.78C428.437 620.653 426.97 620.403 427.37 621.154C427.904 621.906 427.37 622.532 426.304 622.532C425.104 622.532 424.17 623.033 424.17 623.784C424.17 625.412 425.904 625.412 427.637 623.784C428.437 623.033 429.504 623.408 430.437 624.911C431.77 627.04 431.637 627.165 429.104 626.539C426.437 625.913 426.437 626.038 428.037 627.916C429.104 629.169 429.237 630.045 428.437 630.045C425.77 630.045 421.37 623.534 422.837 621.906C425.37 619.025 420.837 618.775 389.237 620.152C372.17 620.904 353.104 621.279 346.837 620.904C326.837 619.902 315.37 612.889 315.637 601.869C316.037 586.091 335.637 571.439 357.637 570.187C368.437 569.561 373.504 570.187 407.504 576.448C447.37 583.711 465.104 580.956 471.637 566.555C474.037 561.296 474.037 544.766 471.637 539.506C469.104 533.621 459.237 525.732 438.304 512.332C401.37 488.79 394.037 479.022 405.237 468.503C411.637 462.367 422.837 458.986 431.904 460.488C435.37 460.989 439.237 461.24 440.57 461.115C441.77 460.989 442.837 461.49 442.837 462.116C442.837 462.868 442.17 463.494 441.237 463.494C440.437 463.494 440.704 464.496 442.17 465.998C443.37 467.251 445.104 468.252 446.037 468.127C446.837 468.002 447.37 468.879 447.104 470.006C446.97 471.258 447.77 474.013 448.97 476.267C450.17 478.396 453.637 485.909 456.704 492.797C463.504 508.2 471.77 519.971 479.104 524.604C486.57 529.113 496.17 529.363 502.704 524.98C517.237 515.212 524.704 487.412 521.77 454.478C519.904 433.815 515.237 407.392 512.704 403.761C511.637 402.258 511.237 400.129 511.637 399.127C512.037 398.126 511.37 390.487 510.304 382.097C506.57 354.797 508.17 338.768 516.304 324.492C522.97 312.846 535.504 303.204 551.504 297.819C559.904 294.939 574.704 295.69 586.304 299.447ZM796.304 611.136C795.37 611.762 794.037 613.014 793.37 613.891C792.57 615.143 792.17 614.893 792.17 612.764C792.17 610.76 792.97 610.009 795.237 610.009C797.37 610.009 797.637 610.385 796.304 611.136ZM822.837 740.871C821.504 742.374 821.504 743.125 822.837 744.628C824.037 746.005 824.037 746.506 822.97 746.506C820.97 746.506 819.637 743.25 820.704 740.871C821.104 739.869 822.17 738.992 822.97 738.992C824.037 738.992 824.037 739.493 822.837 740.871ZM353.504 832.912C353.504 833.539 352.704 834.165 351.637 834.165C350.57 834.165 349.37 835.167 349.104 836.294C348.57 838.047 348.437 837.922 348.304 835.793C348.17 833.413 349.637 832.036 352.57 831.785C353.104 831.66 353.504 832.161 353.504 832.912Z" fill="black"/>
<path d="M545.904 284.42C525.37 291.307 507.77 304.832 500.57 319.483C494.437 331.755 492.837 339.52 493.104 357.677C493.237 373.957 495.104 387.481 502.437 424.674C506.97 448.091 507.77 484.657 503.77 496.053C494.704 522.601 485.504 519.22 469.237 483.655C461.237 465.873 457.904 460.488 451.504 454.478C444.17 447.59 436.97 445.461 424.704 446.338C408.304 447.465 393.237 455.605 387.237 466.374C386.037 468.503 385.104 473.136 385.104 476.643C385.104 490.543 397.104 503.817 426.837 522.35C447.37 535.124 456.037 541.51 457.637 545.016C459.77 550.151 458.437 559.543 454.97 562.924C450.304 567.182 432.037 566.43 402.17 560.795C362.837 553.407 348.17 553.532 330.837 561.797C324.17 564.927 312.17 574.194 312.17 576.198C312.17 576.824 314.037 577.575 316.17 578.076C318.304 578.577 320.17 579.329 320.17 579.955C320.17 580.581 318.437 580.581 316.17 579.955C312.304 578.953 309.37 580.205 312.17 581.833C312.837 582.209 313.504 583.586 313.504 584.713C313.504 586.341 313.104 586.216 311.37 583.962C308.704 580.205 307.37 580.456 304.837 585.089C302.304 589.597 302.837 590.975 306.037 588.094C307.237 586.967 308.17 586.466 308.17 587.093C308.17 587.719 306.437 589.597 304.17 591.475C300.704 594.356 300.17 595.608 300.17 601.494C300.17 614.768 309.237 626.163 323.637 631.172C336.037 635.555 348.97 636.432 378.704 634.929C410.704 633.301 437.904 634.053 447.504 636.808C461.504 640.815 471.37 652.586 471.37 665.359C471.504 671.495 470.837 673.123 467.37 677.256C461.904 683.642 454.704 687.274 444.17 688.777C439.37 689.528 417.637 690.154 395.904 690.154C361.904 690.154 356.17 690.405 356.17 692.032C356.17 693.034 354.97 694.412 353.504 695.163C351.637 696.04 350.837 696.04 350.837 695.163C350.837 694.537 351.504 693.911 352.17 693.911C352.97 693.911 353.504 693.034 353.504 691.907C353.504 690.029 352.304 689.904 344.437 690.655C306.304 694.287 282.304 710.065 266.037 742.123C259.237 755.648 256.304 765.791 255.237 779.566C252.304 818.261 276.837 844.183 316.17 844.183C335.37 844.183 362.97 836.669 389.504 824.147C407.637 815.631 414.304 812 445.504 792.715C474.837 774.682 493.237 765.415 508.57 760.907C530.837 754.27 541.504 758.653 537.37 772.804C536.037 777.312 533.237 780.818 523.637 789.709C502.97 809.119 495.104 826.902 493.904 856.956L493.104 874.237H496.304C499.37 874.362 499.37 874.362 496.837 875.74C495.37 876.491 494.037 877.243 493.77 877.368C492.837 878.119 498.17 899.783 501.504 908.299C508.57 926.457 521.104 941.484 532.837 946.117C539.504 948.747 550.304 948.622 556.97 945.742C571.237 939.606 584.97 919.194 594.704 889.64C606.57 853.45 622.837 826.902 637.904 818.637C659.104 806.991 678.837 814.003 722.57 848.941C745.504 867.099 757.104 875.114 769.104 880.749C778.17 885.007 781.77 886.009 790.037 886.509C798.57 887.01 800.837 886.635 806.97 883.88C821.504 877.618 830.837 866.974 830.837 856.706C830.837 841.553 814.704 827.653 773.904 807.742C765.77 803.735 756.97 799.226 754.57 797.849C747.237 793.591 745.77 795.47 751.504 801.856C753.37 803.985 754.57 805.989 754.17 806.364C753.77 806.74 753.37 806.74 753.104 806.49C752.837 806.239 749.904 802.858 746.437 798.976C742.97 795.094 740.17 791.337 740.17 790.586C740.17 789.96 739.237 789.083 738.17 788.707C734.304 787.205 728.17 777.562 728.17 772.804C728.17 766.167 734.437 755.522 741.37 750.639C750.57 744.002 759.104 742.374 779.37 743.125C788.97 743.626 800.037 744.252 803.904 744.753C810.304 745.504 810.837 745.379 810.037 743.25C809.37 740.996 809.37 740.996 811.237 743C812.57 744.628 813.37 744.878 814.57 743.751C816.17 742.248 816.304 742.499 816.704 745.504C816.704 746.381 819.504 747.508 822.704 748.134C827.237 749.011 828.97 748.76 830.57 747.257C832.304 745.755 832.304 745.003 830.837 743.501C829.504 741.873 829.504 741.497 831.237 741.497C833.904 741.497 835.237 745.129 833.37 747.383C832.437 748.259 832.037 749.261 832.304 749.512C832.57 749.762 840.97 751.265 850.837 752.767C871.237 755.898 899.637 756.649 910.037 754.145C932.037 749.136 945.37 735.862 952.304 711.944C958.437 690.905 953.77 675.002 939.237 667.363C920.837 657.595 894.037 658.472 836.837 670.368C807.77 676.379 794.437 677.757 781.637 676.254C752.037 672.873 744.57 653.588 765.77 635.681C771.504 630.922 779.637 626.539 796.17 619.526C798.037 618.775 799.904 617.648 800.437 616.897C801.104 616.145 801.504 616.27 801.504 617.397C801.504 618.399 802.304 618.775 803.504 618.274C804.704 617.898 820.437 614.642 838.57 611.136C895.104 600.241 916.037 594.606 936.837 584.588C951.237 577.701 965.237 564.677 969.237 554.659C975.37 539.381 976.437 508.951 971.37 491.795C965.237 470.381 950.704 456.231 928.97 450.345C916.704 446.964 890.037 448.216 874.837 452.85C858.97 457.608 848.704 462.242 835.237 470.381C820.437 479.523 810.57 488.414 797.104 504.819C782.57 522.476 770.17 533.746 760.037 538.505C749.77 543.388 746.837 543.388 740.97 538.63C737.637 535.75 735.904 532.869 734.17 526.733C729.77 511.456 732.704 499.935 749.504 466.625C754.704 456.481 760.97 442.456 763.637 435.568C776.704 400.38 774.437 361.309 758.704 350.539C745.904 341.648 716.437 348.786 700.17 364.565C686.037 378.34 676.704 399.754 669.504 434.441C661.237 473.762 659.904 479.272 656.037 486.911C647.77 503.316 635.504 504.067 624.437 488.664C620.17 482.779 615.77 470.256 616.037 464.746C616.437 457.733 620.437 446.588 627.504 433.439C643.637 403.135 648.57 386.73 648.704 362.686C648.837 350.289 648.17 344.654 646.304 338.893C637.37 311.344 614.837 291.307 584.57 283.919C573.37 281.164 554.837 281.414 545.904 284.42ZM586.304 299.447C608.704 306.71 625.77 323.24 631.637 343.652C632.704 347.284 633.504 355.549 633.504 362.186C633.637 382.848 629.104 397.374 612.57 430.058C603.104 448.592 602.437 450.345 601.904 460.238C600.97 472.385 602.837 480.9 608.437 491.419C622.837 518.468 651.77 521.849 667.37 498.182C672.304 490.668 676.17 478.145 681.37 452.223C684.304 437.447 688.304 420.165 690.17 414.029C696.97 392.115 707.504 375.96 719.904 368.447C727.37 363.939 742.037 360.057 746.97 361.184C754.437 362.937 758.037 379.467 756.037 401.131C754.437 417.035 749.77 431.561 739.904 451.597C717.77 496.554 716.837 499.058 717.77 518.343C718.304 529.864 718.837 531.993 722.97 539.506C726.17 545.517 729.237 549.024 733.237 551.779C738.57 555.16 740.037 555.535 749.237 555.535C758.437 555.535 760.437 555.035 768.17 551.153C778.97 545.643 796.304 529.739 809.77 512.958C825.37 493.548 838.704 483.029 860.704 473.387C905.237 453.851 942.837 460.614 954.704 490.292C961.237 506.697 960.837 537.628 954.037 550.777C944.437 569.436 917.77 580.831 855.237 593.103C793.504 605.125 779.904 608.882 764.97 618.149C755.104 624.285 746.037 633.802 741.904 642.067C739.104 647.953 738.57 650.457 739.104 658.221C739.504 665.985 740.17 668.239 743.504 672.873C751.637 683.642 765.37 689.653 784.837 691.031C797.904 691.907 812.304 690.154 839.104 684.519C880.437 675.753 906.17 673.248 921.77 676.254C939.637 679.76 943.904 692.533 934.837 715.826C930.97 725.468 920.837 735.11 911.37 738.241C901.637 741.497 880.97 742.123 861.904 739.744C846.837 737.865 845.504 737.865 841.77 739.869C837.904 741.998 837.77 741.998 833.237 738.241C828.97 734.735 826.704 734.109 810.704 731.729C765.77 725.092 745.104 727.597 729.104 741.372C722.437 747.257 715.637 758.277 713.637 766.918C710.704 778.815 716.437 790.836 729.504 800.103C735.237 804.236 735.37 804.236 736.437 801.731C736.97 800.103 738.57 799.101 740.437 799.101H743.37L740.437 801.105C736.704 803.484 738.037 805.864 742.437 804.736C746.304 803.86 749.504 805.864 749.504 809.245C749.504 810.873 753.637 813.502 763.904 818.637C799.637 836.544 814.837 847.439 814.837 855.578C814.837 860.838 805.637 869.604 798.304 871.607C784.97 874.989 771.237 868.101 734.037 839.174C708.17 819.138 699.104 812.876 686.97 807.116C662.97 795.72 641.37 796.346 625.104 808.994C607.504 822.769 594.57 844.559 580.037 885.132C569.637 914.185 561.637 927.208 550.437 932.718C537.104 939.105 519.77 920.321 511.904 891.143C508.037 876.366 507.637 849.067 511.37 836.794C515.77 821.642 521.237 813.127 534.57 800.354C548.437 786.954 552.17 781.069 553.104 770.55C554.97 752.016 540.437 741.121 518.304 744.127C497.77 746.882 474.57 757.526 431.504 784.074C414.57 794.468 399.237 803.609 397.104 804.486C395.104 805.237 393.104 806.991 392.704 808.243C391.904 810.747 386.837 813.753 386.837 811.624C386.837 810.998 387.504 810.372 388.437 810.372C389.237 810.372 389.637 810.121 389.237 809.746C388.837 809.37 382.837 811.624 375.904 814.629C358.97 822.018 340.57 827.402 326.57 829.156C301.904 832.286 282.704 824.147 274.704 807.366C263.904 784.199 272.704 749.512 294.97 727.096C314.837 707.185 334.437 702.802 394.837 704.43C443.637 705.682 460.17 703.052 473.504 691.782C483.637 683.267 486.17 678.007 486.17 665.109C486.17 656.844 485.504 653.087 483.237 648.579C475.504 632.675 462.304 624.16 439.904 620.653C435.77 620.027 434.97 620.278 435.637 621.906C436.704 624.285 435.77 624.285 430.57 621.78C428.437 620.653 426.97 620.403 427.37 621.154C427.904 621.906 427.37 622.532 426.304 622.532C425.104 622.532 424.17 623.033 424.17 623.784C424.17 625.412 425.904 625.412 427.637 623.784C428.437 623.033 429.504 623.408 430.437 624.911C431.77 627.04 431.637 627.165 429.104 626.539C426.437 625.913 426.437 626.038 428.037 627.916C429.104 629.169 429.237 630.045 428.437 630.045C425.77 630.045 421.37 623.534 422.837 621.906C425.37 619.025 420.837 618.775 389.237 620.152C372.17 620.904 353.104 621.279 346.837 620.904C326.837 619.902 315.37 612.889 315.637 601.869C316.037 586.091 335.637 571.439 357.637 570.187C368.437 569.561 373.504 570.187 407.504 576.448C447.37 583.711 465.104 580.956 471.637 566.555C474.037 561.296 474.037 544.766 471.637 539.506C469.104 533.621 459.237 525.732 438.304 512.332C401.37 488.79 394.037 479.022 405.237 468.503C411.637 462.367 422.837 458.986 431.904 460.488C435.37 460.989 439.237 461.24 440.57 461.115C441.77 460.989 442.837 461.49 442.837 462.116C442.837 462.868 442.17 463.494 441.237 463.494C440.437 463.494 440.704 464.496 442.17 465.998C443.37 467.251 445.104 468.252 446.037 468.127C446.837 468.002 447.37 468.879 447.104 470.006C446.97 471.258 447.77 474.013 448.97 476.267C450.17 478.396 453.637 485.909 456.704 492.797C463.504 508.2 471.77 519.971 479.104 524.604C486.57 529.113 496.17 529.363 502.704 524.98C517.237 515.212 524.704 487.412 521.77 454.478C519.904 433.815 515.237 407.392 512.704 403.761C511.637 402.258 511.237 400.129 511.637 399.127C512.037 398.126 511.37 390.487 510.304 382.097C506.57 354.797 508.17 338.768 516.304 324.492C522.97 312.846 535.504 303.204 551.504 297.819C559.904 294.939 574.704 295.69 586.304 299.447ZM796.304 611.136C795.37 611.762 794.037 613.014 793.37 613.891C792.57 615.143 792.17 614.893 792.17 612.764C792.17 610.76 792.97 610.009 795.237 610.009C797.37 610.009 797.637 610.385 796.304 611.136ZM822.837 740.871C821.504 742.374 821.504 743.125 822.837 744.628C824.037 746.005 824.037 746.506 822.97 746.506C820.97 746.506 819.637 743.25 820.704 740.871C821.104 739.869 822.17 738.992 822.97 738.992C824.037 738.992 824.037 739.493 822.837 740.871ZM353.504 832.912C353.504 833.539 352.704 834.165 351.637 834.165C350.57 834.165 349.37 835.167 349.104 836.294C348.57 838.047 348.437 837.922 348.304 835.793C348.17 833.413 349.637 832.036 352.57 831.785C353.104 831.66 353.504 832.161 353.504 832.912Z" stroke="black" stroke-width="14" mask="url(#path-1-outside-1_3712_265)"/>
<path d="M566.427 425.815C574.684 427.863 581.402 424.066 584.665 418.54C587.871 413.11 587.568 406.515 581.802 401.604C576.157 396.894 571.099 395.887 565.927 397.314C559.213 399.237 554.682 405.145 554.57 412.07C554.589 418.308 558.559 423.725 566.427 425.815Z" fill="black" stroke="black" stroke-width="16"/>
<path d="M891.346 532.34C891.706 532.057 892.188 531.646 892.827 531.045C894.22 529.737 894.622 529.203 894.715 529.065C894.748 528.912 894.838 528.348 894.838 526.859C894.838 524.802 894.2 523.496 893.478 522.7C892.758 521.906 891.51 521.126 889.397 520.92L889.275 520.909L889.154 520.893C888.131 520.762 886.999 520.717 886.086 520.75C885.806 520.759 885.588 520.777 885.431 520.792C885.284 520.867 884.966 521.04 884.496 521.385C883.862 521.851 883.16 522.472 882.49 523.177C881.817 523.887 881.278 524.576 880.916 525.136C880.735 525.417 880.643 525.599 880.603 525.681C880.538 526.077 880.522 526.818 880.763 527.872C880.947 528.679 881.24 529.481 881.587 530.193C881.789 530.138 881.991 530.088 882.193 530.044C883.885 529.678 886.665 529.475 889.421 530.955L889.849 531.184L890.245 531.463C890.523 531.659 890.914 531.95 891.346 532.34ZM877.121 532.445C877.11 532.453 877.098 532.461 877.087 532.47V532.472C877.098 532.463 877.11 532.454 877.121 532.445Z" fill="black" stroke="black" stroke-width="16"/>
<path d="M614.838 613.641L612.914 612.514L610.937 611.356M614.838 613.641L614.979 613.411C615.699 612.283 616.632 611.552 617.399 611.336C617.691 611.114 617.998 610.907 618.322 610.72C618.122 610.582 617.921 610.458 617.723 610.349C616.775 609.827 615.956 609.654 615.564 609.59C615.153 609.522 614.877 609.522 614.838 609.522C613.322 609.522 612.075 609.988 611.106 610.614C611.037 610.856 610.98 611.104 610.937 611.356M614.838 613.641L610.917 611.471M614.838 613.641L610.937 611.356M614.838 613.641C614.134 614.912 613.715 615.791 613.583 616.387L613.544 616.426C613.337 616.642 613.111 616.903 612.883 617.208C611.201 615.561 610.879 613.613 610.842 612.703L610.838 612.514L610.847 612.164C610.858 611.929 610.882 611.698 610.917 611.471M614.838 613.641L612.803 612.514L610.917 611.471M610.937 611.356C610.93 611.394 610.923 611.432 610.917 611.471M617.853 615.832C617.963 615.746 618.071 615.668 618.175 615.596L621.49 617.536C621.466 617.74 621.434 617.923 621.4 618.081C621.386 618.094 621.373 618.108 621.358 618.121C621.177 618.28 620.615 618.735 619.599 619.027C619.447 619.071 619.253 619.117 619.024 619.158M617.853 615.832L619.024 619.158M617.853 615.832C617.648 615.991 617.434 616.173 617.219 616.382C617.048 616.548 616.842 616.767 616.621 617.037M617.853 615.832L618.514 617.708M619.024 619.158C618.263 619.295 617.114 619.36 615.834 618.973C615.816 618.691 615.818 618.431 615.834 618.195C616.089 617.739 616.364 617.353 616.621 617.037M619.024 619.158L618.514 617.708M616.621 617.037L618.514 617.708M616.621 617.037L618.514 617.708M602.824 653.728C635.376 665.822 671.432 648.396 679.782 618.562C680.566 615.659 681.114 611.596 681.308 607.198C677.111 615.811 668.842 621.292 660.184 623.073C647.838 625.613 633.128 621.005 626.18 606.752L626.173 606.736L626.165 606.721C624.258 602.765 622.952 598.688 623.005 594.198C623.058 589.704 624.463 585.628 626.541 581.647V581.646C633.897 567.508 650.099 561.773 664.836 567.188C661.761 564.188 658.434 561.554 655.03 559.54L655.012 559.528L654.993 559.518C641.525 551.448 621.921 549.199 606.627 554.133L606.62 554.135L606.612 554.138L605.666 554.448C585.893 561.108 572.043 576.039 568.119 593.939L568.117 593.949L567.881 595.086C563.239 618.983 577.856 644.499 602.812 653.723L602.824 653.728ZM623.631 630.222C622.535 630.427 621.341 630.488 620.155 630.399C619.582 630.384 618.904 630.335 618.193 630.199C617.751 630.115 617.09 629.959 616.351 629.649C615.725 629.388 614.332 628.729 613.126 627.273C612.61 626.65 612.172 625.922 611.849 625.122C611.26 624.952 610.632 624.71 610.003 624.363C608.745 623.671 607.478 622.565 606.6 620.958C605.752 619.407 605.538 617.889 605.538 616.755C605.538 614.777 606.198 613.15 606.498 612.443C606.881 611.542 607.368 610.617 607.839 609.766L607.886 609.681L607.935 609.598C609.334 607.209 611.776 604.628 615.177 603.65C616.919 603.149 620.14 602.794 623.131 604.974C625.231 606.504 626.187 608.529 626.585 610.288C627.174 610.551 627.755 610.886 628.311 611.309C629.971 612.571 630.901 614.203 631.365 615.636C632.225 618.291 631.702 620.721 631.177 622.202C631.076 622.487 630.982 622.752 630.896 622.999C630.809 623.248 630.738 623.453 630.684 623.617C630.259 625.759 629.058 627.188 628.36 627.865C627.468 628.731 626.573 629.205 626.102 629.431C625.111 629.904 624.189 630.117 623.631 630.222ZM621.538 616.755C621.538 616.166 621.459 615.367 621.161 614.479C621.105 614.468 621.052 614.46 621.002 614.452C620.91 614.461 620.803 614.474 620.678 614.497C620.536 614.524 619.957 614.634 619.203 614.994C619.005 615.089 618.667 615.262 618.261 615.537L621.511 617.336C621.527 617.156 621.538 616.961 621.538 616.755ZM626.994 624.104C627.698 621.442 626.917 618.923 625.549 617.197C625.044 618.049 624.404 618.817 623.656 619.47C623.65 619.488 623.644 619.508 623.638 619.526C623.288 620.513 622.937 621.499 622.855 621.897L622.838 622.03C622.838 622.199 622.351 622.366 621.665 622.419C621.342 622.782 620.977 623.136 620.571 623.468V623.549L621.185 625.29C621.807 625.452 622.413 625.522 622.971 625.522C624.652 625.522 625.958 625.015 626.946 624.265C626.962 624.211 626.98 624.158 626.994 624.104ZM621.228 618.692C621.188 618.785 621.198 618.776 621.232 618.683C621.231 618.686 621.229 618.689 621.228 618.692ZM617.8 621.76C617.821 621.759 617.842 621.758 617.862 621.757C617.744 621.761 617.625 621.766 617.505 621.766L617.8 621.76ZM620.449 623.568C620.058 623.878 619.631 624.166 619.168 624.421C619.541 624.655 619.921 624.845 620.301 624.998L620.449 623.568ZM620.571 623.785V625.102C620.724 625.156 620.877 625.205 621.028 625.248L620.571 623.785ZM622.626 629.176C622.605 629.183 622.583 629.191 622.562 629.198L622.562 629.2C622.58 629.194 622.601 629.185 622.626 629.176Z" fill="black" stroke="black" stroke-width="16"/>
<path d="M538.494 666.378C540.894 666.413 542.198 665.9 542.882 665.454C543.49 665.057 544.165 664.357 544.68 662.811C545.415 660.448 544.663 658.676 543.386 657.571C542.065 656.428 539.826 655.737 537.057 656.865L537.032 656.875L537.009 656.884L536.739 656.998C534.015 658.203 533.255 660.403 533.605 662.435C533.798 663.549 534.327 664.503 535.051 665.161C535.711 665.76 536.761 666.329 538.494 666.378Z" fill="black" stroke="black" stroke-width="16"/>
<path d="M702.667 712.609C708.635 715.168 712.984 712.319 714.026 709.102L714.031 709.089C714.692 707.062 713.922 704.013 710.607 702.114C709.847 701.69 709.265 701.38 708.808 701.151C708.255 701.42 707.695 701.643 707.139 701.826C706.819 702.427 706.418 703.01 705.926 703.557C704.419 705.231 702.607 705.97 701.266 706.285C700.919 706.366 700.577 706.426 700.24 706.468C699.888 709.771 701.536 712.004 702.548 712.552L702.667 712.609Z" fill="black" stroke="black" stroke-width="16"/>
<path d="M592.916 764.577C596.023 764.815 597.269 764.733 598.112 764.56C598.898 764.399 599.851 764.057 602.214 762.772V762.771C611.328 757.81 611.784 744.754 603.496 739.282L603.479 739.271L603.464 739.26C603.464 739.26 603.447 739.25 603.411 739.229C603.374 739.208 603.32 739.178 603.248 739.142C603.101 739.068 602.9 738.976 602.638 738.872C602.106 738.661 601.415 738.436 600.575 738.217C598.886 737.777 596.854 737.431 594.767 737.238C592.672 737.044 590.712 737.021 589.162 737.146C587.803 737.256 587.252 737.442 587.231 737.434C580.851 740.976 578.438 745.348 578.438 750.889C578.438 755.2 579.852 758.273 581.958 760.365C584.115 762.507 587.628 764.232 592.824 764.57L592.87 764.573L592.916 764.577Z" fill="black" stroke="black" stroke-width="16"/>
<path d="M340.993 756.848C343.068 763.074 348.255 766.603 355.967 765.852C362.73 765.047 366.838 760.431 366.838 753.644C366.838 750.169 365.038 746.702 359.342 743.935C356.515 742.581 355.343 742.305 354.531 742.238C353.672 742.168 352.445 742.267 349.321 743.086C346.673 743.83 344.075 745.908 342.377 748.84C340.67 751.788 340.352 754.739 340.993 756.848Z" fill="black" stroke="black" stroke-width="16"/>
<path d="M838.037 738.914C836.882 738.728 835.82 738.234 835.504 737.74C835.004 737.036 836.028 736.551 837.695 736.493L838.037 736.487M838.037 738.914V736.487M838.037 738.914C838.346 738.964 838.661 738.992 838.971 738.992C840.304 738.992 841.504 738.366 841.504 737.74C841.504 736.989 839.904 736.487 838.037 736.487M838.037 738.914V736.487" fill="black" stroke="black" stroke-width="16"/>
<path d="M748.171 808.493C748.171 807.491 746.971 806.614 745.505 806.614L745.233 806.62C743.982 806.674 742.979 807.093 742.852 807.626L742.838 807.741C742.838 808.328 743.658 809.136 744.75 809.544L744.972 809.62C747.904 810.747 748.171 810.622 748.171 808.493Z" fill="black" stroke="black" stroke-width="16"/>
<path d="M744.704 792.839L744.636 792.845C744.363 792.895 744.434 793.269 744.704 793.829M744.704 792.839V793.829M744.704 792.839C744.987 792.839 745.399 793.092 745.76 793.503L744.838 794.092M744.704 792.839V793.829M744.704 793.829C744.744 793.912 744.789 794.001 744.838 794.092M744.838 794.092L745.819 793.57C745.948 793.725 746.069 793.9 746.171 794.092C746.546 794.679 746.687 795.267 746.373 795.337L746.305 795.344C745.905 795.344 745.238 794.718 744.838 794.092Z" fill="black" stroke="black" stroke-width="16"/>
<circle cx="615" cy="615" r="597" stroke="black" stroke-width="36"/>
</svg>
