<?xml version="1.0" standalone="no"?>
<!DOCTYPE svg PUBLIC "-//W3C//DTD SVG 20010904//EN"
 "http://www.w3.org/TR/2001/REC-SVG-20010904/DTD/svg10.dtd">
<svg version="1.0" xmlns="http://www.w3.org/2000/svg"
 width="600.000000pt" height="600.000000pt" viewBox="0 0 600.000000 600.000000"
 preserveAspectRatio="xMidYMid meet">
<g transform="translate(0.000000,600.000000) scale(0.100000,-0.100000)"
fill="#000000" stroke="none">
<path d="M432 3013 l3 -668 163 -3 162 -2 0 61 0 61 35 -30 c214 -188 538
-128 672 125 18 33 39 89 48 124 17 76 20 226 4 301 -30 143 -127 271 -248
331 -63 30 -72 32 -181 32 -135 0 -178 -13 -270 -81 l-60 -44 0 230 0 230
-165 0 -165 0 2 -667z m646 51 c141 -59 187 -259 87 -389 -58 -77 -197 -104
-285 -55 -157 88 -158 354 -1 437 53 28 142 31 199 7z"/>
<path d="M1575 3668 c-3 -7 -4 -308 -3 -668 l3 -655 163 -3 162 -2 0 670 0
670 -160 0 c-119 0 -162 -3 -165 -12z"/>
<path d="M1990 3550 l0 -130 163 2 162 3 0 125 0 125 -162 3 -163 2 0 -130z"/>
<path d="M3450 3010 l0 -670 160 0 160 0 0 118 0 117 46 53 c25 28 49 52 54
52 5 0 50 -69 101 -152 51 -84 99 -161 107 -170 13 -16 36 -18 194 -18 98 0
178 2 178 5 0 2 -81 128 -181 280 l-181 275 103 122 c57 68 139 165 182 216
l79 92 -186 0 -186 0 -141 -177 c-179 -225 -171 -217 -169 -173 1 19 2 185 1
368 l-1 332 -160 0 -160 0 0 -670z"/>
<path d="M4500 3550 l0 -130 160 0 160 0 0 130 0 130 -160 0 -160 0 0 -130z"/>
<path d="M5017 3673 c-4 -3 -7 -82 -7 -175 l0 -168 -65 0 -65 0 0 -125 c0
-140 -8 -128 82 -126 l46 1 5 -258 c3 -175 8 -269 17 -294 24 -68 80 -131 149
-165 56 -29 74 -33 142 -33 90 0 166 24 216 67 l31 28 -31 98 c-25 79 -33 97
-46 91 -38 -16 -91 -21 -113 -10 -13 6 -31 27 -41 46 -15 30 -17 60 -15 230
l3 195 103 3 102 3 0 124 0 124 -102 3 -103 3 -3 173 -2 172 -149 0 c-81 0
-151 -3 -154 -7z"/>
<path d="M2867 3326 c-59 -25 -74 -34 -118 -73 l-25 -23 0 47 1 48 -162 3
-163 2 0 -495 0 -495 159 0 c136 0 160 2 165 16 3 9 6 150 6 313 0 293 0 299
23 331 35 52 70 73 130 78 69 5 118 -17 149 -67 22 -35 23 -45 28 -351 l5
-315 155 0 155 0 3 310 c1 185 -2 338 -8 380 -21 136 -88 232 -199 283 -46 22
-73 27 -151 30 -82 2 -103 -1 -153 -22z"/>
<path d="M1990 2835 l0 -495 163 2 162 3 0 490 0 490 -162 3 -163 2 0 -495z"/>
<path d="M4500 2840 l0 -490 160 0 160 0 0 490 0 490 -160 0 -160 0 0 -490z"/>
</g>
</svg>
