<?xml version="1.0" standalone="no"?>
<!DOCTYPE svg PUBLIC "-//W3C//DTD SVG 20010904//EN"
 "http://www.w3.org/TR/2001/REC-SVG-20010904/DTD/svg10.dtd">
<svg version="1.0" xmlns="http://www.w3.org/2000/svg"
 width="600.000000pt" height="400.000000pt" viewBox="0 0 600.000000 400.000000"
 preserveAspectRatio="xMidYMid meet">
<g transform="translate(0.000000,400.000000) scale(0.100000,-0.100000)"
fill="#000000" stroke="none">
<path d="M1290 2561 c-88 -29 -135 -70 -159 -140 -15 -46 -3 -57 72 -64 56 -5
57 -5 73 26 40 77 140 84 164 11 6 -18 10 -44 8 -56 -3 -20 -11 -24 -66 -30
-109 -12 -172 -35 -218 -82 -95 -94 -79 -253 30 -305 73 -36 169 -22 244 35
l34 26 30 -36 c16 -20 37 -36 47 -36 9 0 39 20 66 44 l50 45 -25 43 c-23 40
-25 54 -30 230 -6 212 -9 222 -90 267 -35 20 -61 25 -125 28 -44 1 -91 -1
-105 -6z m160 -380 c0 -86 -49 -161 -105 -161 -42 0 -67 29 -69 79 -1 70 56
119 142 120 31 1 32 -1 32 -38z"/>
<path d="M2025 2561 c-48 -12 -75 -30 -95 -64 l-20 -32 0 30 c0 50 -10 56 -86
53 l-69 -3 0 -315 0 -315 78 -3 77 -3 0 190 c0 270 12 311 89 311 22 0 35 -7
48 -27 16 -23 18 -57 21 -250 l4 -224 76 3 77 3 5 228 c5 226 5 229 29 248 29
23 84 25 102 2 11 -12 15 -72 19 -247 l5 -231 78 -3 78 -3 -3 280 c-3 266 -4
281 -24 308 -33 44 -76 64 -138 64 -66 0 -107 -20 -139 -67 l-24 -35 -21 35
c-32 54 -104 82 -167 67z"/>
<path d="M2790 2550 c-65 -22 -126 -83 -136 -137 -8 -41 4 -53 56 -53 19 0 45
-3 57 -6 18 -5 25 0 37 30 26 63 117 82 151 33 8 -12 15 -41 15 -64 0 -42 -1
-43 -33 -43 -58 0 -150 -21 -198 -46 -82 -41 -114 -104 -107 -205 5 -69 26
-103 84 -136 70 -40 186 -22 252 40 l22 21 38 -37 c21 -20 44 -37 52 -37 8 1
37 21 65 46 43 38 48 47 37 62 -36 50 -42 81 -42 234 0 176 -7 212 -52 256
-65 62 -189 80 -298 42z m178 -395 c-4 -72 -27 -114 -70 -129 -71 -25 -122 50
-87 128 14 31 82 66 128 66 l33 0 -4 -65z"/>
<path d="M4004 2561 c-146 -37 -234 -205 -204 -394 27 -174 120 -270 260 -269
66 0 113 18 164 62 164 144 124 505 -64 584 -46 19 -117 27 -156 17z m103
-136 c31 -22 43 -74 43 -190 0 -113 -10 -158 -42 -192 -45 -49 -108 -15 -128
69 -16 65 -7 246 15 287 22 43 71 54 112 26z"/>
<path d="M4690 2563 c-35 -7 -76 -38 -97 -74 l-18 -31 -5 44 -5 43 -69 3 c-49
2 -72 -1 -77 -10 -10 -15 -12 -571 -3 -606 6 -22 11 -23 83 -20 l76 3 5 223 5
224 33 29 c39 35 56 36 87 4 27 -26 27 -33 31 -345 1 -58 2 -113 3 -123 1 -16
10 -18 79 -15 l77 3 0 245 c0 135 -4 262 -8 283 -12 58 -58 103 -118 116 -27
6 -51 10 -52 10 -1 -1 -13 -4 -27 -6z"/>
<path d="M3302 2488 l3 -63 103 -3 c56 -1 102 -5 102 -8 0 -2 -48 -73 -106
-157 -59 -84 -113 -166 -120 -184 -16 -38 -18 -106 -4 -133 9 -17 12 -17 75 6
87 31 210 33 292 4 89 -31 93 -30 93 38 0 31 -4 62 -8 68 -18 28 -133 64 -203
64 l-30 0 55 78 c166 234 177 252 174 301 l-3 46 -213 3 -213 2 3 -62z"/>
<path d="M3415 1870 c-58 -14 -136 -52 -132 -64 2 -7 27 -9 68 -6 94 7 164 4
189 -10 20 -11 22 -17 16 -57 -3 -25 -19 -84 -35 -130 -16 -46 -25 -85 -21
-88 13 -8 81 75 106 130 23 51 44 135 44 181 0 13 -9 28 -20 34 -28 15 -167
21 -215 10z"/>
<path d="M1644 1828 c-8 -12 22 -39 136 -122 387 -280 912 -351 1370 -184 161
58 315 148 315 183 0 29 -28 24 -180 -28 -410 -142 -828 -142 -1260 1 -77 25
-192 72 -255 104 -63 32 -115 58 -116 58 -2 0 -6 -5 -10 -12z"/>
</g>
</svg>
