<?xml version="1.0" standalone="no"?>
<!DOCTYPE svg PUBLIC "-//W3C//DTD SVG 20010904//EN"
 "http://www.w3.org/TR/2001/REC-SVG-20010904/DTD/svg10.dtd">
<svg version="1.0" xmlns="http://www.w3.org/2000/svg"
 width="600.000000pt" height="400.000000pt" viewBox="0 0 600.000000 400.000000"
 preserveAspectRatio="xMidYMid meet">
<g transform="translate(0.000000,400.000000) scale(0.100000,-0.100000)"
fill="#000000" stroke="none">
<path d="M930 2351 c-77 -16 -131 -62 -149 -126 -5 -19 -9 -123 -9 -232 -1
-217 6 -254 54 -304 46 -48 104 -59 309 -59 250 0 304 19 342 119 15 39 18 79
18 251 0 192 -2 208 -22 250 -26 52 -76 89 -136 101 -51 10 -358 10 -407 0z
m267 -112 c54 -20 113 -92 113 -138 0 -28 -29 -41 -94 -41 l-55 0 -4 38 -4 37
1 -40 1 -40 50 -3 c77 -4 95 -10 95 -32 0 -46 -138 -280 -165 -280 -20 0 -109
135 -102 155 5 10 20 15 51 15 38 0 45 -3 49 -22 3 -20 4 -20 3 2 -1 23 -5 25
-65 30 l-65 5 -22 55 c-37 89 -30 156 24 214 49 52 124 70 189 45z"/>
<path d="M1680 2298 c-42 -46 -14 -108 50 -108 65 0 93 65 47 108 -30 28 -71
28 -97 0z"/>
<path d="M2753 2233 c-52 -15 -53 -16 -53 -54 0 -38 -1 -39 -33 -39 l-34 0 3
-52 c2 -51 3 -53 33 -56 l31 -3 0 -82 c1 -165 22 -199 131 -205 l70 -4 -3 48
c-3 48 -4 49 -38 54 l-35 5 -5 88 c-3 49 -3 91 -1 93 2 2 22 4 43 4 l38 0 0
55 0 55 -40 0 -40 0 0 55 c0 30 -3 55 -7 54 -5 0 -32 -8 -60 -16z"/>
<path d="M4985 2232 c-47 -16 -50 -19 -53 -54 -3 -35 -6 -38 -33 -38 -29 0
-29 -1 -29 -55 0 -54 0 -55 30 -55 l30 0 0 -75 c0 -94 16 -168 40 -190 13 -12
43 -19 90 -23 l70 -5 0 52 0 51 -35 0 c-44 0 -55 23 -55 121 l0 69 45 0 45 0
0 55 0 55 -45 0 -44 0 -3 54 -3 54 -50 -16z"/>
<path d="M2030 2143 c-8 -3 -25 -15 -37 -26 l-23 -20 0 21 c0 20 -5 22 -60 22
l-60 0 0 -200 0 -200 60 0 60 0 0 128 c0 140 8 164 56 176 39 10 81 -11 93
-46 6 -17 11 -82 11 -144 l0 -114 56 0 56 0 -4 153 c-5 166 -12 191 -61 228
-31 23 -114 36 -147 22z"/>
<path d="M2359 2129 c-61 -36 -84 -96 -57 -153 14 -33 49 -55 117 -76 62 -18
86 -44 59 -64 -23 -17 -75 -8 -93 16 -13 20 -14 20 -65 -9 l-51 -30 29 -30
c49 -54 161 -69 239 -34 57 26 77 59 70 117 -6 61 -34 88 -122 117 -54 18 -70
28 -70 43 0 25 50 32 74 10 17 -15 22 -14 65 10 46 26 47 27 29 46 -52 58
-158 75 -224 37z"/>
<path d="M3054 2134 c-17 -8 -45 -29 -61 -47 -84 -89 -67 -261 30 -325 55 -37
150 -38 196 -4 30 22 31 22 31 2 0 -18 6 -20 60 -20 l60 0 0 200 0 200 -60 0
c-53 0 -60 -2 -60 -20 0 -18 -2 -18 -36 5 -43 29 -112 33 -160 9z m167 -123
c64 -64 18 -181 -71 -181 -29 0 -77 26 -89 49 -43 80 0 160 87 161 35 0 49 -6
73 -29z"/>
<path d="M3604 2140 c-12 -5 -25 -13 -29 -19 -9 -16 -25 -13 -25 4 0 12 -13
15 -60 15 l-60 0 0 -200 0 -200 60 0 60 0 0 130 c0 126 1 132 25 155 29 30 58
32 85 5 18 -18 20 -33 20 -155 l0 -135 60 0 60 0 0 133 c0 127 1 135 23 155
30 28 58 28 85 -1 20 -21 22 -34 22 -155 l0 -132 55 0 55 0 0 148 c-1 117 -4
154 -18 182 -39 79 -142 105 -216 55 l-38 -25 -30 25 c-31 26 -90 33 -134 15z"/>
<path d="M4215 2134 c-47 -24 -66 -45 -91 -99 -84 -179 84 -370 251 -285 47
24 45 24 45 5 0 -12 13 -15 55 -15 l55 0 0 200 0 200 -55 0 c-42 0 -55 -3 -55
-15 0 -19 -3 -19 -47 5 -45 24 -116 26 -158 4z m157 -105 c28 -15 50 -73 42
-114 -20 -108 -178 -108 -198 0 -8 40 13 98 41 114 24 14 89 14 115 0z"/>
<path d="M4783 2135 c-17 -7 -36 -23 -43 -34 -16 -30 -30 -26 -30 9 0 30 -1
30 -55 30 l-55 0 0 -200 0 -200 55 0 55 0 0 100 c0 54 5 110 11 124 12 25 63
56 92 56 16 0 24 42 19 98 -4 36 -5 37 -49 17z"/>
<path d="M1670 1940 l0 -200 60 0 60 0 0 200 0 200 -60 0 -60 0 0 -200z"/>
</g>
</svg>
