<?xml version="1.0" standalone="no"?>
<!DOCTYPE svg PUBLIC "-//W3C//DTD SVG 20010904//EN"
 "http://www.w3.org/TR/2001/REC-SVG-20010904/DTD/svg10.dtd">
<svg version="1.0" xmlns="http://www.w3.org/2000/svg"
 width="426.000000pt" height="426.000000pt" viewBox="0 0 426.000000 426.000000"
 preserveAspectRatio="xMidYMid meet">
<g transform="translate(0.000000,426.000000) scale(0.100000,-0.100000)"
fill="#000000" stroke="none">
<path d="M514 2655 c-92 -25 -167 -68 -240 -137 -118 -112 -168 -232 -167
-398 1 -146 45 -251 151 -362 70 -73 128 -110 224 -142 90 -30 218 -35 308
-11 199 53 347 205 395 406 65 278 -114 569 -395 644 -68 18 -208 18 -276 0z
m218 -255 c14 -11 33 -38 42 -60 l16 -40 59 0 c40 0 61 -4 64 -13 3 -8 1 -61
-4 -118 -4 -57 -11 -142 -15 -189 -4 -47 -11 -93 -16 -102 -8 -16 -29 -18
-228 -18 -164 0 -221 3 -227 13 -10 16 -43 387 -37 410 4 14 17 17 70 17 l64
0 15 38 c23 57 60 82 121 82 36 0 59 -6 76 -20z"/>
<path d="M614 2345 c-14 -14 -23 -29 -20 -34 3 -5 33 -9 66 -10 66 -1 77 12
40 49 -27 27 -56 25 -86 -5z"/>
<path d="M1911 2424 c-26 -11 -31 -18 -31 -47 0 -55 50 -84 100 -57 26 14 34
57 16 85 -19 29 -46 35 -85 19z"/>
<path d="M1699 2193 c-1 -109 -4 -209 -8 -223 -8 -29 -47 -46 -84 -36 -19 4
-29 15 -35 39 -8 31 -10 32 -65 35 -63 3 -66 -1 -47 -67 23 -82 119 -130 219
-111 29 5 65 19 81 30 52 37 60 78 60 315 l0 215 -60 0 -60 0 -1 -197z"/>
<path d="M2500 2115 l0 -275 60 0 60 0 2 188 3 187 63 -188 64 -188 51 3 50 3
61 177 61 177 3 -180 2 -179 60 0 60 0 0 275 0 275 -87 0 -88 0 -54 -175 c-30
-96 -58 -179 -61 -186 -4 -6 -36 72 -70 175 l-62 186 -89 0 -89 0 0 -275z"/>
<path d="M3920 2310 l0 -60 -30 0 c-28 0 -30 -2 -30 -40 0 -37 2 -40 29 -40
l28 0 5 -130 c6 -146 16 -172 75 -196 19 -8 54 -14 76 -12 42 3 42 3 45 46 3
40 2 42 -25 42 -48 0 -53 14 -53 136 l0 113 38 3 c35 3 37 5 40 41 l3 37 -40
0 -41 0 0 60 0 60 -60 0 -60 0 0 -60z"/>
<path d="M2152 2239 c-154 -77 -147 -339 11 -398 45 -17 137 -13 184 8 77 35
122 142 102 244 -25 136 -171 208 -297 146z m153 -86 c25 -24 35 -58 35 -114
0 -110 -77 -164 -148 -104 -23 19 -32 37 -37 74 -8 60 9 125 38 146 29 20 91
19 112 -2z"/>
<path d="M3255 2247 c-43 -17 -59 -29 -78 -57 -29 -41 -22 -50 37 -50 43 0 56
4 67 21 11 15 25 20 58 21 50 0 71 -18 71 -63 0 -26 -1 -26 -83 -31 -138 -9
-183 -46 -175 -144 7 -80 36 -107 123 -112 58 -4 70 -1 105 22 38 25 40 25 40
6 0 -18 7 -20 56 -20 l56 0 -4 158 c-4 175 -16 213 -74 242 -37 18 -160 23
-199 7z m155 -257 c0 -43 -39 -80 -84 -80 -40 0 -66 21 -66 55 0 35 36 55 97
55 52 0 53 0 53 -30z"/>
<path d="M3754 2250 c-12 -4 -33 -23 -48 -42 l-26 -33 0 38 0 37 -50 0 -50 0
0 -205 0 -205 55 0 55 0 0 115 c0 160 20 195 110 195 l41 0 -3 53 c-3 50 -4
52 -33 54 -16 1 -40 -2 -51 -7z"/>
<path d="M1880 2045 l0 -205 60 0 60 0 0 205 0 205 -60 0 -60 0 0 -205z"/>
</g>
</svg>
