<?xml version="1.0" standalone="no"?>
<!DOCTYPE svg PUBLIC "-//W3C//DTD SVG 20010904//EN"
 "http://www.w3.org/TR/2001/REC-SVG-20010904/DTD/svg10.dtd">
<svg version="1.0" xmlns="http://www.w3.org/2000/svg"
 width="512.000000pt" height="512.000000pt" viewBox="0 0 512.000000 512.000000"
 preserveAspectRatio="xMidYMid meet">
<g transform="translate(0.000000,512.000000) scale(0.100000,-0.100000)"
fill="#000000" stroke="none">
<path d="M2525 4460 c-90 -14 -176 -86 -210 -173 -30 -80 -2 -237 56 -311 19
-25 25 -26 115 -26 l94 0 0 -50 c0 -27 -4 -50 -10 -50 -5 0 -10 18 -10 40 l0
40 -59 0 c-68 0 -91 -6 -91 -26 0 -31 142 -234 163 -234 28 0 228 339 252 426
11 40 -18 54 -111 55 -46 1 -88 3 -94 4 -5 1 -14 3 -20 4 -13 1 -13 161 0 161
5 0 10 -33 12 -72 l3 -73 85 3 c96 4 140 21 140 55 0 39 -46 121 -88 159 -66
59 -140 82 -227 68z"/>
<path d="M840 3185 c-46 -21 -69 -43 -86 -84 -45 -108 25 -221 139 -221 63 0
118 30 146 80 27 48 27 92 0 146 -35 74 -128 110 -199 79z"/>
<path d="M3070 3010 l-125 -37 -3 -81 -3 -81 -67 -3 -67 -3 -3 -127 -3 -128
70 0 69 0 5 -202 c5 -241 16 -288 81 -352 30 -30 57 -46 92 -55 64 -17 192
-26 238 -17 l36 7 0 119 0 120 -49 0 c-59 0 -108 16 -121 40 -6 10 -10 91 -10
179 l0 161 90 0 90 0 0 130 0 130 -90 0 -90 0 0 120 c0 66 -3 120 -7 119 -5
-1 -64 -18 -133 -39z"/>
<path d="M1540 2814 c-25 -9 -62 -29 -82 -45 l-37 -29 -3 33 -3 32 -132 3
-133 3 0 -441 0 -440 135 0 135 0 0 271 c0 260 1 273 22 310 26 46 70 69 133
69 57 0 100 -21 125 -63 19 -30 20 -52 20 -309 l0 -278 136 0 135 0 -3 328 -3
327 -27 57 c-31 67 -96 133 -158 161 -61 28 -197 33 -260 11z"/>
<path d="M2299 2817 c-56 -16 -125 -56 -161 -94 -81 -85 -87 -250 -11 -334 50
-55 83 -73 223 -119 139 -47 152 -54 148 -84 -8 -56 -154 -52 -203 6 -14 16
-25 34 -25 39 0 18 -24 8 -131 -53 l-108 -62 22 -39 c49 -88 150 -149 277
-167 168 -24 339 32 408 134 33 49 48 142 33 208 -26 114 -100 175 -268 223
-118 33 -153 50 -153 73 0 63 125 54 173 -13 13 -16 20 -14 113 35 132 71 128
67 108 99 -28 45 -97 103 -153 129 -44 20 -74 26 -150 29 -59 2 -114 -2 -142
-10z"/>
<path d="M3757 2819 c-112 -26 -232 -135 -283 -255 -27 -64 -29 -78 -29 -200
l0 -131 43 -85 c69 -141 176 -220 326 -241 91 -13 164 2 240 48 l56 34 0 -30
0 -29 135 0 135 0 0 440 0 441 -132 -3 -133 -3 -3 -33 -3 -32 -34 25 c-74 57
-209 80 -318 54z m203 -250 c102 -23 156 -104 148 -221 -9 -116 -71 -179 -184
-186 -85 -6 -145 22 -185 86 -25 39 -29 56 -29 113 0 36 7 82 15 101 17 42 75
95 113 104 15 3 32 7 37 9 18 6 39 5 85 -6z"/>
<path d="M767 2803 c-4 -3 -7 -201 -7 -440 l0 -433 135 0 135 0 0 440 0 440
-128 0 c-71 0 -132 -3 -135 -7z"/>
<path d="M4057 1834 c-59 -18 -112 -36 -117 -39 -6 -4 -10 -42 -10 -86 l0 -79
-70 0 -71 0 3 -127 3 -128 68 -3 67 -3 0 -168 c0 -238 18 -315 89 -387 46 -46
114 -64 247 -64 l114 0 0 125 0 125 -61 0 c-59 0 -96 11 -111 34 -4 6 -8 84
-8 174 l0 162 90 0 90 0 0 130 0 130 -90 0 -90 0 0 120 c0 108 -2 120 -17 119
-10 0 -67 -16 -126 -35z"/>
<path d="M1180 1647 c-54 -12 -112 -45 -137 -77 -10 -12 -12 -9 -13 23 l0 37
-135 0 -136 0 3 -437 3 -438 133 -3 132 -3 0 258 c0 147 5 274 10 295 24 85
90 123 172 99 32 -10 43 -20 59 -54 17 -38 19 -68 19 -320 l0 -278 133 3 132
3 5 285 c3 189 9 292 17 305 34 60 103 80 168 49 62 -29 65 -46 65 -364 l0
-281 133 3 132 3 0 320 c0 308 -1 322 -23 376 -32 79 -81 133 -159 171 -60 29
-75 32 -152 32 -99 -1 -164 -24 -219 -77 l-33 -32 -24 31 c-49 63 -179 95
-285 71z"/>
<path d="M2510 1649 c-146 -29 -283 -166 -325 -324 -17 -68 -20 -169 -5 -244
24 -126 122 -256 236 -312 118 -59 292 -51 381 17 38 29 48 28 48 -6 l0 -25
133 -3 132 -3 0 441 0 440 -136 0 -136 0 4 -24 c3 -14 1 -31 -3 -38 -6 -9 -9
-9 -9 -1 0 20 -102 71 -164 82 -68 12 -92 12 -156 0z m248 -282 c57 -37 82
-90 82 -171 0 -76 -11 -110 -48 -149 -41 -44 -80 -60 -146 -60 -129 -1 -206
77 -206 208 0 66 16 109 56 149 44 44 81 57 155 53 52 -2 75 -8 107 -30z"/>
<path d="M3665 1636 c-64 -20 -101 -43 -134 -83 l-31 -38 0 58 0 57 -135 0
-135 0 0 -440 0 -441 133 3 132 3 5 240 c5 231 6 241 28 273 32 44 94 74 169
80 l63 5 0 148 0 149 -27 -1 c-16 0 -46 -6 -68 -13z"/>
</g>
</svg>
